<svg width="927" height="557" viewBox="0 0 927 557" fill="none" xmlns="http://www.w3.org/2000/svg">
<rect y="48" width="927" height="509" rx="19" fill="black"/>
<rect y="47" width="927" height="282" rx="17" fill="url(#paint0_linear_5_94)"/>
<rect y="320" width="925" height="120" fill="url(#paint1_linear_5_94)"/>
<rect x="32" y="124" width="125" height="125" fill="#2A2A2A"/>
<circle cx="48.5" cy="89.5" r="16.5" fill="black"/>
<path d="M51 84L45.75 89L51 94" stroke="#EAEAEA" stroke-width="2" stroke-linecap="round" stroke-linejoin="round"/>
<g style="mix-blend-mode:multiply">
<circle cx="16.5" cy="16.5" r="16.5" transform="matrix(-1 0 0 1 109 73)" fill="black"/>
<path d="M90 84L95.25 89L90 94" stroke="#EAEAEA" stroke-width="2" stroke-linecap="round" stroke-linejoin="round"/>
</g>
<rect x="682" y="76" width="170" height="37" rx="18.5" fill="white"/>
<path d="M708.062 100V89.2H715.037V90.895H709.869V93.5575H714.137V95.2525H709.869V98.305H715.037V100H708.062ZM715.936 100L718.899 95.905L715.996 91.9H718.126L719.949 94.4875L721.741 91.9H723.871L720.969 95.905L723.946 100H721.816L719.949 97.3225L718.066 100H715.936ZM729.034 100.225C728.244 100.225 727.582 100.038 727.047 99.6625C726.512 99.2875 726.109 98.7775 725.839 98.1325C725.569 97.4825 725.434 96.755 725.434 95.95C725.434 95.135 725.569 94.405 725.839 93.76C726.109 93.115 726.504 92.6075 727.024 92.2375C727.549 91.8625 728.197 91.675 728.967 91.675C729.732 91.675 730.394 91.8625 730.954 92.2375C731.519 92.6075 731.957 93.115 732.267 93.76C732.577 94.4 732.732 95.13 732.732 95.95C732.732 96.76 732.579 97.4875 732.274 98.1325C731.969 98.7775 731.539 99.2875 730.984 99.6625C730.429 100.038 729.779 100.225 729.034 100.225ZM725.127 103.6V91.9H726.724V97.585H726.949V103.6H725.127ZM728.757 98.605C729.227 98.605 729.614 98.4875 729.919 98.2525C730.224 98.0175 730.449 97.7 730.594 97.3C730.744 96.895 730.819 96.445 730.819 95.95C730.819 95.46 730.744 95.015 730.594 94.615C730.444 94.21 730.212 93.89 729.897 93.655C729.582 93.415 729.182 93.295 728.697 93.295C728.237 93.295 727.862 93.4075 727.572 93.6325C727.282 93.8525 727.067 94.1625 726.927 94.5625C726.792 94.9575 726.724 95.42 726.724 95.95C726.724 96.475 726.792 96.9375 726.927 97.3375C727.067 97.7375 727.284 98.05 727.579 98.275C727.879 98.495 728.272 98.605 728.757 98.605ZM734.535 100V88.975H736.342V100H734.535ZM742.167 100.225C741.357 100.225 740.649 100.043 740.044 99.6775C739.439 99.3125 738.969 98.81 738.634 98.17C738.304 97.525 738.139 96.785 738.139 95.95C738.139 95.1 738.309 94.355 738.649 93.715C738.989 93.075 739.462 92.575 740.067 92.215C740.672 91.855 741.372 91.675 742.167 91.675C742.982 91.675 743.692 91.8575 744.297 92.2225C744.902 92.5875 745.372 93.0925 745.707 93.7375C746.042 94.3775 746.209 95.115 746.209 95.95C746.209 96.79 746.039 97.5325 745.699 98.1775C745.364 98.8175 744.894 99.32 744.289 99.685C743.684 100.045 742.977 100.225 742.167 100.225ZM742.167 98.53C742.887 98.53 743.422 98.29 743.772 97.81C744.122 97.33 744.297 96.71 744.297 95.95C744.297 95.165 744.119 94.54 743.764 94.075C743.409 93.605 742.877 93.37 742.167 93.37C741.682 93.37 741.282 93.48 740.967 93.7C740.657 93.915 740.427 94.2175 740.277 94.6075C740.127 94.9925 740.052 95.44 740.052 95.95C740.052 96.735 740.229 97.3625 740.584 97.8325C740.944 98.2975 741.472 98.53 742.167 98.53ZM747.862 100V91.9H749.459V93.8725L749.264 93.6175C749.364 93.3475 749.497 93.1025 749.662 92.8825C749.832 92.6575 750.034 92.4725 750.269 92.3275C750.469 92.1925 750.689 92.0875 750.929 92.0125C751.174 91.9325 751.424 91.885 751.679 91.87C751.934 91.85 752.182 91.86 752.422 91.9V93.5875C752.182 93.5175 751.904 93.495 751.589 93.52C751.279 93.545 750.999 93.6325 750.749 93.7825C750.499 93.9175 750.294 94.09 750.134 94.3C749.979 94.51 749.864 94.75 749.789 95.02C749.714 95.285 749.677 95.5725 749.677 95.8825V100H747.862ZM757.389 100.225C756.569 100.225 755.849 100.048 755.229 99.6925C754.609 99.3375 754.124 98.845 753.774 98.215C753.429 97.585 753.256 96.86 753.256 96.04C753.256 95.155 753.426 94.3875 753.766 93.7375C754.106 93.0825 754.579 92.575 755.184 92.215C755.789 91.855 756.489 91.675 757.284 91.675C758.124 91.675 758.836 91.8725 759.421 92.2675C760.011 92.6575 760.449 93.21 760.734 93.925C761.019 94.64 761.126 95.4825 761.056 96.4525H759.264V95.7925C759.259 94.9125 759.104 94.27 758.799 93.865C758.494 93.46 758.014 93.2575 757.359 93.2575C756.619 93.2575 756.069 93.4875 755.709 93.9475C755.349 94.4025 755.169 95.07 755.169 95.95C755.169 96.77 755.349 97.405 755.709 97.855C756.069 98.305 756.594 98.53 757.284 98.53C757.729 98.53 758.111 98.4325 758.431 98.2375C758.756 98.0375 759.006 97.75 759.181 97.375L760.966 97.915C760.656 98.645 760.176 99.2125 759.526 99.6175C758.881 100.022 758.169 100.225 757.389 100.225ZM754.599 96.4525V95.0875H760.171V96.4525H754.599ZM765.733 100V89.2H770.195C770.3 89.2 770.435 89.205 770.6 89.215C770.765 89.22 770.918 89.235 771.058 89.26C771.683 89.355 772.198 89.5625 772.603 89.8825C773.013 90.2025 773.315 90.6075 773.51 91.0975C773.71 91.5825 773.81 92.1225 773.81 92.7175C773.81 93.3075 773.71 93.8475 773.51 94.3375C773.31 94.8225 773.005 95.225 772.595 95.545C772.19 95.865 771.678 96.0725 771.058 96.1675C770.918 96.1875 770.763 96.2025 770.593 96.2125C770.428 96.2225 770.295 96.2275 770.195 96.2275H767.54V100H765.733ZM767.54 94.54H770.12C770.22 94.54 770.333 94.535 770.458 94.525C770.583 94.515 770.698 94.495 770.803 94.465C771.103 94.39 771.338 94.2575 771.508 94.0675C771.683 93.8775 771.805 93.6625 771.875 93.4225C771.95 93.1825 771.988 92.9475 771.988 92.7175C771.988 92.4875 771.95 92.2525 771.875 92.0125C771.805 91.7675 771.683 91.55 771.508 91.36C771.338 91.17 771.103 91.0375 770.803 90.9625C770.698 90.9325 770.583 90.915 770.458 90.91C770.333 90.9 770.22 90.895 770.12 90.895H767.54V94.54ZM775.313 100V91.9H776.91V93.8725L776.715 93.6175C776.815 93.3475 776.948 93.1025 777.113 92.8825C777.283 92.6575 777.485 92.4725 777.72 92.3275C777.92 92.1925 778.14 92.0875 778.38 92.0125C778.625 91.9325 778.875 91.885 779.13 91.87C779.385 91.85 779.633 91.86 779.873 91.9V93.5875C779.633 93.5175 779.355 93.495 779.04 93.52C778.73 93.545 778.45 93.6325 778.2 93.7825C777.95 93.9175 777.745 94.09 777.585 94.3C777.43 94.51 777.315 94.75 777.24 95.02C777.165 95.285 777.128 95.5725 777.128 95.8825V100H775.313ZM784.84 100.225C784.02 100.225 783.3 100.048 782.68 99.6925C782.06 99.3375 781.575 98.845 781.225 98.215C780.88 97.585 780.707 96.86 780.707 96.04C780.707 95.155 780.877 94.3875 781.217 93.7375C781.557 93.0825 782.03 92.575 782.635 92.215C783.24 91.855 783.94 91.675 784.735 91.675C785.575 91.675 786.287 91.8725 786.872 92.2675C787.462 92.6575 787.9 93.21 788.185 93.925C788.47 94.64 788.577 95.4825 788.507 96.4525H786.715V95.7925C786.71 94.9125 786.555 94.27 786.25 93.865C785.945 93.46 785.465 93.2575 784.81 93.2575C784.07 93.2575 783.52 93.4875 783.16 93.9475C782.8 94.4025 782.62 95.07 782.62 95.95C782.62 96.77 782.8 97.405 783.16 97.855C783.52 98.305 784.045 98.53 784.735 98.53C785.18 98.53 785.562 98.4325 785.882 98.2375C786.207 98.0375 786.457 97.75 786.632 97.375L788.417 97.915C788.107 98.645 787.627 99.2125 786.977 99.6175C786.332 100.022 785.62 100.225 784.84 100.225ZM782.05 96.4525V95.0875H787.622V96.4525H782.05ZM799.689 100V95.08C799.689 94.525 799.551 94.0925 799.276 93.7825C799.001 93.4675 798.629 93.31 798.159 93.31C797.869 93.31 797.609 93.3775 797.379 93.5125C797.149 93.6425 796.966 93.8375 796.831 94.0975C796.696 94.3525 796.629 94.6575 796.629 95.0125L795.826 94.54C795.821 93.98 795.946 93.4875 796.201 93.0625C796.461 92.6325 796.811 92.2975 797.251 92.0575C797.691 91.8175 798.181 91.6975 798.721 91.6975C799.616 91.6975 800.301 91.9675 800.776 92.5075C801.256 93.0425 801.496 93.7475 801.496 94.6225V100H799.689ZM789.946 100V91.9H791.544V94.4125H791.769V100H789.946ZM794.829 100V95.1025C794.829 94.5375 794.691 94.0975 794.416 93.7825C794.141 93.4675 793.766 93.31 793.291 93.31C792.831 93.31 792.461 93.4675 792.181 93.7825C791.906 94.0975 791.769 94.5075 791.769 95.0125L790.959 94.4725C790.959 93.9475 791.089 93.475 791.349 93.055C791.609 92.635 791.959 92.305 792.399 92.065C792.844 91.82 793.341 91.6975 793.891 91.6975C794.496 91.6975 795.001 91.8275 795.406 92.0875C795.816 92.3425 796.121 92.6925 796.321 93.1375C796.526 93.5775 796.629 94.075 796.629 94.63V100H794.829ZM803.602 90.67V89.0125H805.41V90.67H803.602ZM803.602 100V91.9H805.41V100H803.602ZM810.694 100.233C810.094 100.233 809.599 100.133 809.209 99.9325C808.819 99.7325 808.509 99.4775 808.279 99.1675C808.049 98.8575 807.879 98.5275 807.769 98.1775C807.659 97.8275 807.586 97.4975 807.551 97.1875C807.521 96.8725 807.506 96.6175 807.506 96.4225V91.9H809.336V95.8C809.336 96.05 809.354 96.3325 809.389 96.6475C809.424 96.9575 809.504 97.2575 809.629 97.5475C809.759 97.8325 809.949 98.0675 810.199 98.2525C810.454 98.4375 810.796 98.53 811.226 98.53C811.456 98.53 811.684 98.4925 811.909 98.4175C812.134 98.3425 812.336 98.215 812.516 98.035C812.701 97.85 812.849 97.5975 812.959 97.2775C813.069 96.9575 813.124 96.5525 813.124 96.0625L814.196 96.52C814.196 97.21 814.061 97.835 813.791 98.395C813.526 98.955 813.134 99.4025 812.614 99.7375C812.094 100.068 811.454 100.233 810.694 100.233ZM813.341 100V97.4875H813.124V91.9H814.939V100H813.341ZM826.774 100V95.08C826.774 94.525 826.636 94.0925 826.361 93.7825C826.086 93.4675 825.714 93.31 825.244 93.31C824.954 93.31 824.694 93.3775 824.464 93.5125C824.234 93.6425 824.051 93.8375 823.916 94.0975C823.781 94.3525 823.714 94.6575 823.714 95.0125L822.911 94.54C822.906 93.98 823.031 93.4875 823.286 93.0625C823.546 92.6325 823.896 92.2975 824.336 92.0575C824.776 91.8175 825.266 91.6975 825.806 91.6975C826.701 91.6975 827.386 91.9675 827.861 92.5075C828.341 93.0425 828.581 93.7475 828.581 94.6225V100H826.774ZM817.031 100V91.9H818.629V94.4125H818.854V100H817.031ZM821.914 100V95.1025C821.914 94.5375 821.776 94.0975 821.501 93.7825C821.226 93.4675 820.851 93.31 820.376 93.31C819.916 93.31 819.546 93.4675 819.266 93.7825C818.991 94.0975 818.854 94.5075 818.854 95.0125L818.044 94.4725C818.044 93.9475 818.174 93.475 818.434 93.055C818.694 92.635 819.044 92.305 819.484 92.065C819.929 91.82 820.426 91.6975 820.976 91.6975C821.581 91.6975 822.086 91.8275 822.491 92.0875C822.901 92.3425 823.206 92.6925 823.406 93.1375C823.611 93.5775 823.714 94.075 823.714 94.63V100H821.914Z" fill="black"/>
<circle cx="875.5" cy="94.5" r="16.5" fill="black"/>
<path fill-rule="evenodd" clip-rule="evenodd" d="M879 91C879 92.6569 877.657 94 876 94C874.343 94 873 92.6569 873 91C873 89.3431 874.343 88 876 88C877.657 88 879 89.3431 879 91ZM881 91C881 93.7614 878.761 96 876 96C873.239 96 871 93.7614 871 91C871 88.2386 873.239 86 876 86C878.761 86 881 88.2386 881 91ZM883.986 101.502C883.915 100.945 883.784 100.407 883.601 99.892C883.14 98.6004 882.347 97.4619 881.323 96.5752C881.252 96.5141 881.18 96.4541 881.108 96.3953L881.099 96.3883C881.058 96.3554 881.017 96.3228 880.975 96.2906C880.837 96.1839 880.669 96.1181 880.495 96.1121C879.984 96.0947 879.724 96.2137 879.525 96.4395C879.165 96.8456 879.361 97.488 879.757 97.8683C879.77 97.8817 879.785 97.8948 879.799 97.9075C879.814 97.9209 879.83 97.934 879.845 97.9466C879.893 97.985 879.94 98.0242 879.987 98.0639C880.147 98.2014 880.3 98.3469 880.445 98.4998C880.989 99.0745 881.417 99.7536 881.693 100.5H879.476H872.523H870.306C870.582 99.7536 871.01 99.0745 871.554 98.4998C871.697 98.3491 871.847 98.2056 872.005 98.0699C872.054 98.0279 872.104 97.9867 872.154 97.9462C872.17 97.9336 872.185 97.9206 872.201 97.9072C872.215 97.8945 872.229 97.8815 872.243 97.8681C872.638 97.4879 872.834 96.8455 872.475 96.4393C872.276 96.2136 872.016 96.0945 871.505 96.1118C871.33 96.1177 871.163 96.1835 871.025 96.2903C870.983 96.3224 870.942 96.3549 870.901 96.3877L870.892 96.3949C870.814 96.4581 870.737 96.5227 870.661 96.5886C869.644 97.4734 868.856 98.6069 868.398 99.892C868.215 100.407 868.084 100.945 868.013 101.502C867.942 102.05 868.397 102.5 868.949 102.5H870.306H881.693H883.05C883.602 102.5 884.057 102.05 883.986 101.502Z" fill="#EAEAEA"/>
<path d="M179.05 140V129.2H183.513C183.618 129.2 183.753 129.205 183.918 129.215C184.083 129.22 184.235 129.235 184.375 129.26C185 129.355 185.515 129.562 185.92 129.882C186.33 130.202 186.633 130.607 186.828 131.097C187.028 131.582 187.128 132.122 187.128 132.717C187.128 133.307 187.028 133.847 186.828 134.337C186.628 134.822 186.323 135.225 185.913 135.545C185.508 135.865 184.995 136.072 184.375 136.167C184.235 136.187 184.08 136.202 183.91 136.213C183.745 136.222 183.613 136.227 183.513 136.227H180.858V140H179.05ZM180.858 134.54H183.438C183.538 134.54 183.65 134.535 183.775 134.525C183.9 134.515 184.015 134.495 184.12 134.465C184.42 134.39 184.655 134.257 184.825 134.067C185 133.877 185.123 133.662 185.193 133.422C185.268 133.182 185.305 132.947 185.305 132.717C185.305 132.487 185.268 132.252 185.193 132.012C185.123 131.767 185 131.55 184.825 131.36C184.655 131.17 184.42 131.037 184.12 130.962C184.015 130.932 183.9 130.915 183.775 130.91C183.65 130.9 183.538 130.895 183.438 130.895H180.858V134.54ZM191.668 140.233C191.068 140.233 190.573 140.133 190.183 139.932C189.793 139.732 189.483 139.477 189.253 139.167C189.023 138.857 188.853 138.527 188.743 138.177C188.633 137.827 188.56 137.497 188.525 137.187C188.495 136.872 188.48 136.617 188.48 136.422V131.9H190.31V135.8C190.31 136.05 190.328 136.332 190.363 136.647C190.398 136.957 190.478 137.257 190.603 137.547C190.733 137.832 190.923 138.067 191.173 138.252C191.428 138.437 191.77 138.53 192.2 138.53C192.43 138.53 192.658 138.492 192.883 138.417C193.108 138.342 193.31 138.215 193.49 138.035C193.675 137.85 193.823 137.597 193.933 137.277C194.043 136.957 194.098 136.552 194.098 136.062L195.17 136.52C195.17 137.21 195.035 137.835 194.765 138.395C194.5 138.955 194.108 139.402 193.588 139.737C193.068 140.068 192.428 140.233 191.668 140.233ZM194.315 140V137.487H194.098V131.9H195.913V140H194.315ZM201.912 140.225C201.122 140.225 200.46 140.038 199.925 139.662C199.39 139.287 198.987 138.777 198.717 138.132C198.447 137.482 198.312 136.755 198.312 135.95C198.312 135.135 198.447 134.405 198.717 133.76C198.987 133.115 199.382 132.607 199.902 132.237C200.427 131.862 201.075 131.675 201.845 131.675C202.61 131.675 203.272 131.862 203.832 132.237C204.397 132.607 204.835 133.115 205.145 133.76C205.455 134.4 205.61 135.13 205.61 135.95C205.61 136.76 205.457 137.487 205.152 138.132C204.847 138.777 204.417 139.287 203.862 139.662C203.307 140.038 202.657 140.225 201.912 140.225ZM198.005 140V129.2H199.827V134.315H199.602V140H198.005ZM201.635 138.605C202.105 138.605 202.492 138.487 202.797 138.252C203.102 138.017 203.327 137.7 203.472 137.3C203.622 136.895 203.697 136.445 203.697 135.95C203.697 135.46 203.622 135.015 203.472 134.615C203.322 134.21 203.09 133.89 202.775 133.655C202.46 133.415 202.06 133.295 201.575 133.295C201.115 133.295 200.74 133.407 200.45 133.632C200.16 133.852 199.945 134.162 199.805 134.562C199.67 134.957 199.602 135.42 199.602 135.95C199.602 136.475 199.67 136.937 199.805 137.337C199.945 137.737 200.162 138.05 200.457 138.275C200.757 138.495 201.15 138.605 201.635 138.605ZM207.413 140V128.975H209.22V140H207.413ZM211.617 130.67V129.012H213.424V130.67H211.617ZM211.617 140V131.9H213.424V140H211.617ZM219.189 140.225C218.354 140.225 217.641 140.04 217.051 139.67C216.461 139.295 216.009 138.785 215.694 138.14C215.384 137.495 215.226 136.765 215.221 135.95C215.226 135.12 215.389 134.385 215.709 133.745C216.034 133.1 216.494 132.595 217.089 132.23C217.684 131.86 218.391 131.675 219.211 131.675C220.131 131.675 220.909 131.907 221.544 132.372C222.184 132.832 222.601 133.462 222.796 134.262L220.996 134.75C220.856 134.315 220.624 133.977 220.299 133.737C219.974 133.492 219.604 133.37 219.189 133.37C218.719 133.37 218.331 133.482 218.026 133.707C217.721 133.927 217.496 134.232 217.351 134.622C217.206 135.012 217.134 135.455 217.134 135.95C217.134 136.72 217.306 137.342 217.651 137.817C217.996 138.292 218.509 138.53 219.189 138.53C219.669 138.53 220.046 138.42 220.321 138.2C220.601 137.98 220.811 137.662 220.951 137.247L222.796 137.66C222.546 138.485 222.109 139.12 221.484 139.565C220.859 140.005 220.094 140.225 219.189 140.225ZM227.302 140V129.2H231.764C231.869 129.2 232.004 129.205 232.169 129.215C232.334 129.22 232.487 129.235 232.627 129.26C233.252 129.355 233.767 129.562 234.172 129.882C234.582 130.202 234.884 130.607 235.079 131.097C235.279 131.582 235.379 132.122 235.379 132.717C235.379 133.307 235.279 133.847 235.079 134.337C234.879 134.822 234.574 135.225 234.164 135.545C233.759 135.865 233.247 136.072 232.627 136.167C232.487 136.187 232.332 136.202 232.162 136.213C231.997 136.222 231.864 136.227 231.764 136.227H229.109V140H227.302ZM229.109 134.54H231.689C231.789 134.54 231.902 134.535 232.027 134.525C232.152 134.515 232.267 134.495 232.372 134.465C232.672 134.39 232.907 134.257 233.077 134.067C233.252 133.877 233.374 133.662 233.444 133.422C233.519 133.182 233.557 132.947 233.557 132.717C233.557 132.487 233.519 132.252 233.444 132.012C233.374 131.767 233.252 131.55 233.077 131.36C232.907 131.17 232.672 131.037 232.372 130.962C232.267 130.932 232.152 130.915 232.027 130.91C231.902 130.9 231.789 130.895 231.689 130.895H229.109V134.54ZM237.032 140V128.975H238.84V140H237.032ZM243.351 140.225C242.766 140.225 242.271 140.115 241.866 139.895C241.461 139.67 241.154 139.372 240.944 139.002C240.739 138.632 240.636 138.225 240.636 137.78C240.636 137.39 240.701 137.04 240.831 136.73C240.961 136.415 241.161 136.145 241.431 135.92C241.701 135.69 242.051 135.502 242.481 135.357C242.806 135.252 243.186 135.157 243.621 135.072C244.061 134.987 244.536 134.91 245.046 134.84C245.561 134.765 246.099 134.685 246.659 134.6L246.014 134.967C246.019 134.407 245.894 133.995 245.639 133.73C245.384 133.465 244.954 133.332 244.349 133.332C243.984 133.332 243.631 133.417 243.291 133.587C242.951 133.757 242.714 134.05 242.579 134.465L240.929 133.947C241.129 133.262 241.509 132.712 242.069 132.297C242.634 131.882 243.394 131.675 244.349 131.675C245.069 131.675 245.701 131.792 246.246 132.027C246.796 132.262 247.204 132.647 247.469 133.182C247.614 133.467 247.701 133.76 247.731 134.06C247.761 134.355 247.776 134.677 247.776 135.027V140H246.194V138.245L246.456 138.53C246.091 139.115 245.664 139.545 245.174 139.82C244.689 140.09 244.081 140.225 243.351 140.225ZM243.711 138.785C244.121 138.785 244.471 138.712 244.761 138.567C245.051 138.422 245.281 138.245 245.451 138.035C245.626 137.825 245.744 137.627 245.804 137.442C245.899 137.212 245.951 136.95 245.961 136.655C245.976 136.355 245.984 136.112 245.984 135.927L246.539 136.092C245.994 136.177 245.526 136.252 245.136 136.317C244.746 136.382 244.411 136.445 244.131 136.505C243.851 136.56 243.604 136.622 243.389 136.692C243.179 136.767 243.001 136.855 242.856 136.955C242.711 137.055 242.599 137.17 242.519 137.3C242.444 137.43 242.406 137.582 242.406 137.757C242.406 137.957 242.456 138.135 242.556 138.29C242.656 138.44 242.801 138.56 242.991 138.65C243.186 138.74 243.426 138.785 243.711 138.785ZM250.34 143.6L251.9 139.317L251.93 140.578L248.397 131.9H250.28L252.785 138.32H252.305L254.742 131.9H256.55L252.035 143.6H250.34ZM257.818 140V128.975H259.626V140H257.818ZM262.022 130.67V129.012H263.83V130.67H262.022ZM262.022 140V131.9H263.83V140H262.022ZM269.204 140.225C268.204 140.225 267.391 140 266.766 139.55C266.141 139.1 265.761 138.467 265.626 137.652L267.471 137.367C267.566 137.767 267.776 138.082 268.101 138.312C268.426 138.542 268.836 138.657 269.331 138.657C269.766 138.657 270.101 138.572 270.336 138.402C270.576 138.227 270.696 137.99 270.696 137.69C270.696 137.505 270.651 137.357 270.561 137.247C270.476 137.132 270.286 137.022 269.991 136.917C269.696 136.812 269.244 136.68 268.634 136.52C267.954 136.34 267.414 136.147 267.014 135.942C266.614 135.732 266.326 135.485 266.151 135.2C265.976 134.915 265.889 134.57 265.889 134.165C265.889 133.66 266.021 133.22 266.286 132.845C266.551 132.47 266.921 132.182 267.396 131.982C267.871 131.777 268.431 131.675 269.076 131.675C269.706 131.675 270.264 131.772 270.749 131.967C271.239 132.162 271.634 132.44 271.934 132.8C272.234 133.16 272.419 133.582 272.489 134.067L270.644 134.397C270.599 134.052 270.441 133.78 270.171 133.58C269.906 133.38 269.551 133.267 269.106 133.242C268.681 133.217 268.339 133.282 268.079 133.437C267.819 133.587 267.689 133.8 267.689 134.075C267.689 134.23 267.741 134.362 267.846 134.472C267.951 134.582 268.161 134.692 268.476 134.802C268.796 134.912 269.271 135.047 269.901 135.207C270.546 135.372 271.061 135.562 271.446 135.777C271.836 135.987 272.116 136.24 272.286 136.535C272.461 136.83 272.549 137.187 272.549 137.607C272.549 138.422 272.251 139.062 271.656 139.527C271.066 139.993 270.249 140.225 269.204 140.225ZM278.939 140C278.404 140.1 277.879 140.143 277.364 140.128C276.854 140.118 276.397 140.025 275.992 139.85C275.587 139.67 275.279 139.387 275.069 139.002C274.884 138.652 274.787 138.295 274.777 137.93C274.767 137.565 274.762 137.152 274.762 136.692V129.65H276.562V136.587C276.562 136.912 276.564 137.197 276.569 137.442C276.579 137.687 276.632 137.887 276.727 138.042C276.907 138.342 277.194 138.51 277.589 138.545C277.984 138.58 278.434 138.56 278.939 138.485V140ZM273.292 133.317V131.9H278.939V133.317H273.292Z" fill="white"/>
<path d="M184.584 189V170.024H177.32V165.96H196.2V170.024H188.936V189H184.584ZM203.61 189.512C202.255 189.512 201.151 189.283 200.298 188.824C199.444 188.365 198.778 187.784 198.298 187.08C197.828 186.376 197.492 185.645 197.289 184.888C197.087 184.12 196.964 183.421 196.922 182.792C196.879 182.163 196.858 181.704 196.858 181.416V171.72H201.274V179.88C201.274 180.275 201.295 180.781 201.338 181.4C201.38 182.008 201.514 182.621 201.738 183.24C201.962 183.859 202.324 184.376 202.826 184.792C203.338 185.208 204.058 185.416 204.986 185.416C205.359 185.416 205.759 185.357 206.186 185.24C206.612 185.123 207.012 184.899 207.386 184.568C207.759 184.227 208.063 183.731 208.298 183.08C208.543 182.419 208.666 181.555 208.666 180.488L211.162 181.672C211.162 183.037 210.884 184.317 210.33 185.512C209.775 186.707 208.938 187.672 207.818 188.408C206.708 189.144 205.306 189.512 203.61 189.512ZM209.21 189V183.272H208.666V171.72H213.05V189H209.21ZM217.521 189V171.72H221.361V175.944L220.945 175.4C221.169 174.803 221.468 174.259 221.841 173.768C222.215 173.277 222.673 172.872 223.217 172.552C223.633 172.296 224.087 172.099 224.577 171.96C225.068 171.811 225.575 171.72 226.097 171.688C226.62 171.645 227.143 171.656 227.665 171.72V175.784C227.185 175.635 226.625 175.587 225.985 175.64C225.356 175.683 224.785 175.827 224.273 176.072C223.761 176.307 223.329 176.621 222.977 177.016C222.625 177.4 222.359 177.859 222.177 178.392C221.996 178.915 221.905 179.507 221.905 180.168V189H217.521ZM242.485 189V180.84C242.485 180.445 242.463 179.944 242.421 179.336C242.378 178.717 242.245 178.099 242.021 177.48C241.797 176.861 241.429 176.344 240.917 175.928C240.415 175.512 239.701 175.304 238.773 175.304C238.399 175.304 237.999 175.363 237.573 175.48C237.146 175.597 236.746 175.827 236.373 176.168C235.999 176.499 235.69 176.989 235.445 177.64C235.21 178.291 235.093 179.155 235.093 180.232L232.597 179.048C232.597 177.683 232.874 176.403 233.429 175.208C233.983 174.013 234.815 173.048 235.925 172.312C237.045 171.576 238.453 171.208 240.149 171.208C241.503 171.208 242.607 171.437 243.461 171.896C244.314 172.355 244.975 172.936 245.445 173.64C245.925 174.344 246.266 175.08 246.469 175.848C246.671 176.605 246.794 177.299 246.837 177.928C246.879 178.557 246.901 179.016 246.901 179.304V189H242.485ZM230.677 189V171.72H234.549V177.448H235.093V189H230.677ZM259.667 196.68L262.995 187.528L263.059 190.216L255.539 171.72H260.051L265.107 184.808H264.083L269.107 171.72H273.459L263.699 196.68H259.667ZM282.86 189.48C281.121 189.48 279.596 189.091 278.284 188.312C276.972 187.533 275.948 186.461 275.212 185.096C274.486 183.72 274.124 182.141 274.124 180.36C274.124 178.557 274.497 176.973 275.244 175.608C275.99 174.232 277.02 173.16 278.332 172.392C279.644 171.624 281.153 171.24 282.86 171.24C284.598 171.24 286.124 171.629 287.436 172.408C288.758 173.187 289.788 174.264 290.524 175.64C291.26 177.005 291.628 178.579 291.628 180.36C291.628 182.152 291.254 183.736 290.508 185.112C289.772 186.477 288.742 187.549 287.42 188.328C286.108 189.096 284.588 189.48 282.86 189.48ZM282.86 185.416C284.257 185.416 285.297 184.947 285.98 184.008C286.673 183.059 287.02 181.843 287.02 180.36C287.02 178.824 286.668 177.597 285.964 176.68C285.27 175.763 284.236 175.304 282.86 175.304C281.91 175.304 281.132 175.517 280.524 175.944C279.916 176.371 279.462 176.963 279.164 177.72C278.876 178.477 278.732 179.357 278.732 180.36C278.732 181.907 279.078 183.139 279.772 184.056C280.476 184.963 281.505 185.416 282.86 185.416ZM301.578 189.512C300.224 189.512 299.12 189.283 298.266 188.824C297.413 188.365 296.746 187.784 296.266 187.08C295.797 186.376 295.461 185.645 295.258 184.888C295.056 184.12 294.933 183.421 294.89 182.792C294.848 182.163 294.826 181.704 294.826 181.416V171.72H299.242V179.88C299.242 180.275 299.264 180.781 299.306 181.4C299.349 182.008 299.482 182.621 299.706 183.24C299.93 183.859 300.293 184.376 300.794 184.792C301.306 185.208 302.026 185.416 302.954 185.416C303.328 185.416 303.728 185.357 304.154 185.24C304.581 185.123 304.981 184.899 305.354 184.568C305.728 184.227 306.032 183.731 306.266 183.08C306.512 182.419 306.634 181.555 306.634 180.488L309.13 181.672C309.13 183.037 308.853 184.317 308.298 185.512C307.744 186.707 306.906 187.672 305.786 188.408C304.677 189.144 303.274 189.512 301.578 189.512ZM307.178 189V183.272H306.634V171.72H311.018V189H307.178ZM315.49 189V171.72H319.33V175.944L318.914 175.4C319.138 174.803 319.437 174.259 319.81 173.768C320.183 173.277 320.642 172.872 321.186 172.552C321.602 172.296 322.055 172.099 322.546 171.96C323.037 171.811 323.543 171.72 324.066 171.688C324.589 171.645 325.111 171.656 325.634 171.72V175.784C325.154 175.635 324.594 175.587 323.954 175.64C323.325 175.683 322.754 175.827 322.242 176.072C321.73 176.307 321.298 176.621 320.946 177.016C320.594 177.4 320.327 177.859 320.146 178.392C319.965 178.915 319.874 179.507 319.874 180.168V189H315.49ZM336.524 189V171.784C336.524 171.347 336.534 170.851 336.556 170.296C336.577 169.741 336.662 169.181 336.812 168.616C336.972 168.051 337.26 167.539 337.676 167.08C338.209 166.483 338.785 166.077 339.404 165.864C340.033 165.64 340.641 165.523 341.228 165.512C341.814 165.491 342.316 165.48 342.732 165.48H344.876V169H342.892C342.209 169 341.702 169.176 341.372 169.528C341.041 169.869 340.876 170.28 340.876 170.76V189H336.524ZM333.804 175.08V171.72H344.876V175.08H333.804ZM354.835 189.48C353.064 189.48 351.501 189.101 350.147 188.344C348.803 187.576 347.747 186.525 346.979 185.192C346.221 183.848 345.843 182.312 345.843 180.584C345.843 178.696 346.216 177.053 346.963 175.656C347.709 174.259 348.739 173.176 350.051 172.408C351.363 171.629 352.872 171.24 354.579 171.24C356.392 171.24 357.933 171.667 359.203 172.52C360.472 173.373 361.411 174.573 362.019 176.12C362.627 177.667 362.84 179.485 362.659 181.576H358.355V179.976C358.355 178.216 358.072 176.952 357.507 176.184C356.952 175.405 356.04 175.016 354.771 175.016C353.288 175.016 352.195 175.469 351.491 176.376C350.797 177.272 350.451 178.6 350.451 180.36C350.451 181.971 350.797 183.219 351.491 184.104C352.195 184.979 353.224 185.416 354.579 185.416C355.432 185.416 356.163 185.229 356.771 184.856C357.379 184.483 357.843 183.944 358.163 183.24L362.515 184.488C361.864 186.067 360.835 187.293 359.427 188.168C358.029 189.043 356.499 189.48 354.835 189.48ZM349.107 181.576V178.344H360.562V181.576H349.107ZM374.303 189.48C372.533 189.48 370.97 189.101 369.615 188.344C368.271 187.576 367.215 186.525 366.447 185.192C365.69 183.848 365.311 182.312 365.311 180.584C365.311 178.696 365.685 177.053 366.431 175.656C367.178 174.259 368.207 173.176 369.519 172.408C370.831 171.629 372.341 171.24 374.047 171.24C375.861 171.24 377.402 171.667 378.671 172.52C379.941 173.373 380.879 174.573 381.487 176.12C382.095 177.667 382.309 179.485 382.127 181.576H377.823V179.976C377.823 178.216 377.541 176.952 376.975 176.184C376.421 175.405 375.509 175.016 374.239 175.016C372.757 175.016 371.663 175.469 370.959 176.376C370.266 177.272 369.919 178.6 369.919 180.36C369.919 181.971 370.266 183.219 370.959 184.104C371.663 184.979 372.693 185.416 374.047 185.416C374.901 185.416 375.631 185.229 376.239 184.856C376.847 184.483 377.311 183.944 377.631 183.24L381.983 184.488C381.333 186.067 380.303 187.293 378.895 188.168C377.498 189.043 375.967 189.48 374.303 189.48ZM368.575 181.576V178.344H380.031V181.576H368.575ZM386.06 189V165.48H390.412V189H386.06ZM395.529 169.32V165.48H399.881V169.32H395.529ZM395.529 189V171.72H399.881V189H395.529ZM416.454 189V180.84C416.454 180.445 416.432 179.944 416.39 179.336C416.347 178.717 416.214 178.099 415.99 177.48C415.766 176.861 415.398 176.344 414.886 175.928C414.384 175.512 413.67 175.304 412.742 175.304C412.368 175.304 411.968 175.363 411.542 175.48C411.115 175.597 410.715 175.827 410.342 176.168C409.968 176.499 409.659 176.989 409.414 177.64C409.179 178.291 409.062 179.155 409.062 180.232L406.566 179.048C406.566 177.683 406.843 176.403 407.398 175.208C407.952 174.013 408.784 173.048 409.894 172.312C411.014 171.576 412.422 171.208 414.118 171.208C415.472 171.208 416.576 171.437 417.43 171.896C418.283 172.355 418.944 172.936 419.414 173.64C419.894 174.344 420.235 175.08 420.438 175.848C420.64 176.605 420.763 177.299 420.806 177.928C420.848 178.557 420.87 179.016 420.87 179.304V189H416.454ZM404.646 189V171.72H408.518V177.448H409.062V189H404.646ZM432.413 197.16C431.432 197.16 430.499 197 429.613 196.68C428.728 196.371 427.933 195.933 427.229 195.368C426.536 194.813 425.971 194.163 425.533 193.416L429.565 191.464C429.843 191.976 430.237 192.365 430.749 192.632C431.272 192.899 431.837 193.032 432.445 193.032C433.096 193.032 433.709 192.92 434.285 192.696C434.861 192.483 435.32 192.157 435.661 191.72C436.013 191.293 436.179 190.76 436.157 190.12V185.096H436.701V171.72H440.509V190.184C440.509 190.611 440.488 191.011 440.445 191.384C440.413 191.768 440.349 192.147 440.253 192.52C439.976 193.576 439.459 194.445 438.701 195.128C437.955 195.811 437.037 196.317 435.949 196.648C434.861 196.989 433.683 197.16 432.413 197.16ZM432.029 189.48C430.44 189.48 429.048 189.08 427.853 188.28C426.659 187.48 425.725 186.392 425.053 185.016C424.392 183.64 424.061 182.088 424.061 180.36C424.061 178.6 424.397 177.037 425.069 175.672C425.752 174.296 426.707 173.213 427.933 172.424C429.16 171.635 430.6 171.24 432.253 171.24C433.896 171.24 435.277 171.64 436.397 172.44C437.517 173.24 438.365 174.328 438.941 175.704C439.517 177.08 439.805 178.632 439.805 180.36C439.805 182.088 439.512 183.64 438.925 185.016C438.349 186.392 437.485 187.48 436.333 188.28C435.181 189.08 433.747 189.48 432.029 189.48ZM432.733 185.608C433.704 185.608 434.477 185.389 435.053 184.952C435.64 184.515 436.061 183.901 436.317 183.112C436.573 182.323 436.701 181.405 436.701 180.36C436.701 179.315 436.573 178.397 436.317 177.608C436.061 176.819 435.651 176.205 435.085 175.768C434.531 175.331 433.8 175.112 432.893 175.112C431.923 175.112 431.123 175.352 430.493 175.832C429.875 176.301 429.416 176.936 429.117 177.736C428.819 178.525 428.669 179.4 428.669 180.36C428.669 181.331 428.813 182.216 429.101 183.016C429.389 183.805 429.832 184.435 430.429 184.904C431.027 185.373 431.795 185.608 432.733 185.608ZM451.742 189.48C449.566 189.48 447.806 188.989 446.462 188.008C445.129 187.016 444.318 185.619 444.03 183.816L448.478 183.144C448.659 183.955 449.059 184.589 449.678 185.048C450.307 185.507 451.102 185.736 452.062 185.736C452.851 185.736 453.459 185.587 453.886 185.288C454.313 184.979 454.526 184.552 454.526 184.008C454.526 183.667 454.441 183.395 454.27 183.192C454.099 182.979 453.715 182.771 453.118 182.568C452.531 182.365 451.614 182.099 450.366 181.768C448.958 181.405 447.833 181 446.99 180.552C446.147 180.104 445.539 179.571 445.166 178.952C444.793 178.323 444.606 177.565 444.606 176.68C444.606 175.571 444.889 174.611 445.454 173.8C446.019 172.979 446.814 172.349 447.838 171.912C448.873 171.464 450.089 171.24 451.486 171.24C452.841 171.24 454.041 171.448 455.086 171.864C456.131 172.28 456.974 172.872 457.614 173.64C458.265 174.408 458.665 175.315 458.814 176.36L454.366 177.16C454.291 176.52 454.014 176.013 453.534 175.64C453.054 175.267 452.403 175.048 451.582 174.984C450.782 174.931 450.137 175.037 449.646 175.304C449.166 175.571 448.926 175.955 448.926 176.456C448.926 176.755 449.027 177.005 449.23 177.208C449.443 177.411 449.875 177.619 450.526 177.832C451.187 178.045 452.19 178.323 453.534 178.664C454.846 179.005 455.897 179.405 456.686 179.864C457.486 180.312 458.067 180.856 458.43 181.496C458.793 182.125 458.974 182.888 458.974 183.784C458.974 185.555 458.334 186.947 457.054 187.96C455.774 188.973 454.003 189.48 451.742 189.48ZM469.216 169.32V165.48H473.568V169.32H469.216ZM469.216 189V171.72H473.568V189H469.216ZM490.141 189V180.84C490.141 180.445 490.12 179.944 490.077 179.336C490.034 178.717 489.901 178.099 489.677 177.48C489.453 176.861 489.085 176.344 488.573 175.928C488.072 175.512 487.357 175.304 486.429 175.304C486.056 175.304 485.656 175.363 485.229 175.48C484.802 175.597 484.402 175.827 484.029 176.168C483.656 176.499 483.346 176.989 483.101 177.64C482.866 178.291 482.749 179.155 482.749 180.232L480.253 179.048C480.253 177.683 480.53 176.403 481.085 175.208C481.64 174.013 482.472 173.048 483.581 172.312C484.701 171.576 486.109 171.208 487.805 171.208C489.16 171.208 490.264 171.437 491.117 171.896C491.97 172.355 492.632 172.936 493.101 173.64C493.581 174.344 493.922 175.08 494.125 175.848C494.328 176.605 494.45 177.299 494.493 177.928C494.536 178.557 494.557 179.016 494.557 179.304V189H490.141ZM478.333 189V171.72H482.205V177.448H482.749V189H478.333ZM509.077 189C507.882 189.224 506.709 189.32 505.557 189.288C504.415 189.267 503.391 189.069 502.485 188.696C501.589 188.312 500.906 187.699 500.437 186.856C500.01 186.067 499.786 185.267 499.765 184.456C499.743 183.635 499.733 182.707 499.733 181.672V166.92H504.085V181.416C504.085 182.088 504.09 182.696 504.101 183.24C504.122 183.773 504.234 184.2 504.437 184.52C504.821 185.128 505.434 185.459 506.277 185.512C507.119 185.565 508.053 185.523 509.077 185.384V189ZM496.789 175.08V171.72H509.077V175.08H496.789ZM519.766 189.48C518.027 189.48 516.502 189.091 515.19 188.312C513.878 187.533 512.854 186.461 512.118 185.096C511.393 183.72 511.03 182.141 511.03 180.36C511.03 178.557 511.403 176.973 512.15 175.608C512.897 174.232 513.926 173.16 515.238 172.392C516.55 171.624 518.059 171.24 519.766 171.24C521.505 171.24 523.03 171.629 524.342 172.408C525.665 173.187 526.694 174.264 527.43 175.64C528.166 177.005 528.534 178.579 528.534 180.36C528.534 182.152 528.161 183.736 527.414 185.112C526.678 186.477 525.649 187.549 524.326 188.328C523.014 189.096 521.494 189.48 519.766 189.48ZM519.766 185.416C521.163 185.416 522.203 184.947 522.886 184.008C523.579 183.059 523.926 181.843 523.926 180.36C523.926 178.824 523.574 177.597 522.87 176.68C522.177 175.763 521.142 175.304 519.766 175.304C518.817 175.304 518.038 175.517 517.43 175.944C516.822 176.371 516.369 176.963 516.07 177.72C515.782 178.477 515.638 179.357 515.638 180.36C515.638 181.907 515.985 183.139 516.678 184.056C517.382 184.963 518.411 185.416 519.766 185.416ZM543.259 189.48C542.021 189.48 540.971 189.245 540.107 188.776C539.253 188.296 538.603 187.661 538.155 186.872C537.717 186.072 537.499 185.192 537.499 184.232C537.499 183.432 537.621 182.701 537.867 182.04C538.112 181.379 538.507 180.797 539.051 180.296C539.605 179.784 540.347 179.357 541.275 179.016C541.915 178.781 542.677 178.573 543.563 178.392C544.448 178.211 545.451 178.04 546.571 177.88C547.691 177.709 548.923 177.523 550.267 177.32L548.699 178.184C548.699 177.16 548.453 176.408 547.963 175.928C547.472 175.448 546.651 175.208 545.499 175.208C544.859 175.208 544.192 175.363 543.499 175.672C542.805 175.981 542.32 176.531 542.043 177.32L538.107 176.072C538.544 174.643 539.365 173.48 540.571 172.584C541.776 171.688 543.419 171.24 545.499 171.24C547.024 171.24 548.379 171.475 549.563 171.944C550.747 172.413 551.643 173.224 552.251 174.376C552.592 175.016 552.795 175.656 552.859 176.296C552.923 176.936 552.955 177.651 552.955 178.44V189H549.147V185.448L549.691 186.184C548.848 187.347 547.936 188.189 546.955 188.712C545.984 189.224 544.752 189.48 543.259 189.48ZM544.187 186.056C544.987 186.056 545.659 185.917 546.203 185.64C546.757 185.352 547.195 185.027 547.515 184.664C547.845 184.301 548.069 183.997 548.187 183.752C548.411 183.283 548.539 182.739 548.571 182.12C548.613 181.491 548.635 180.968 548.635 180.552L549.915 180.872C548.624 181.085 547.579 181.267 546.779 181.416C545.979 181.555 545.333 181.683 544.843 181.8C544.352 181.917 543.92 182.045 543.547 182.184C543.12 182.355 542.773 182.541 542.507 182.744C542.251 182.936 542.059 183.149 541.931 183.384C541.813 183.619 541.755 183.88 541.755 184.168C541.755 184.563 541.851 184.904 542.043 185.192C542.245 185.469 542.528 185.683 542.891 185.832C543.253 185.981 543.685 186.056 544.187 186.056ZM572.001 189.48C570.284 189.48 568.849 189.08 567.697 188.28C566.545 187.48 565.676 186.392 565.089 185.016C564.513 183.64 564.225 182.088 564.225 180.36C564.225 178.632 564.513 177.08 565.089 175.704C565.665 174.328 566.513 173.24 567.633 172.44C568.753 171.64 570.135 171.24 571.777 171.24C573.431 171.24 574.871 171.635 576.097 172.424C577.324 173.213 578.273 174.296 578.945 175.672C579.628 177.037 579.969 178.6 579.969 180.36C579.969 182.088 579.633 183.64 578.961 185.016C578.3 186.392 577.372 187.48 576.177 188.28C574.983 189.08 573.591 189.48 572.001 189.48ZM563.489 196.68V171.72H567.329V183.56H567.873V196.68H563.489ZM571.297 185.608C572.236 185.608 573.004 185.373 573.601 184.904C574.199 184.435 574.641 183.805 574.929 183.016C575.217 182.216 575.361 181.331 575.361 180.36C575.361 179.4 575.212 178.525 574.913 177.736C574.615 176.936 574.151 176.301 573.521 175.832C572.903 175.352 572.108 175.112 571.137 175.112C570.231 175.112 569.495 175.331 568.929 175.768C568.375 176.205 567.969 176.819 567.713 177.608C567.457 178.397 567.329 179.315 567.329 180.36C567.329 181.405 567.457 182.323 567.713 183.112C567.969 183.901 568.385 184.515 568.961 184.952C569.548 185.389 570.327 185.608 571.297 185.608ZM583.81 189V165.48H588.162V189H583.81ZM597.759 189.48C596.521 189.48 595.471 189.245 594.607 188.776C593.753 188.296 593.103 187.661 592.655 186.872C592.217 186.072 591.999 185.192 591.999 184.232C591.999 183.432 592.121 182.701 592.367 182.04C592.612 181.379 593.007 180.797 593.551 180.296C594.105 179.784 594.847 179.357 595.775 179.016C596.415 178.781 597.177 178.573 598.063 178.392C598.948 178.211 599.951 178.04 601.071 177.88C602.191 177.709 603.423 177.523 604.767 177.32L603.199 178.184C603.199 177.16 602.953 176.408 602.463 175.928C601.972 175.448 601.151 175.208 599.999 175.208C599.359 175.208 598.692 175.363 597.999 175.672C597.305 175.981 596.82 176.531 596.543 177.32L592.607 176.072C593.044 174.643 593.865 173.48 595.071 172.584C596.276 171.688 597.919 171.24 599.999 171.24C601.524 171.24 602.879 171.475 604.063 171.944C605.247 172.413 606.143 173.224 606.751 174.376C607.092 175.016 607.295 175.656 607.359 176.296C607.423 176.936 607.455 177.651 607.455 178.44V189H603.647V185.448L604.191 186.184C603.348 187.347 602.436 188.189 601.455 188.712C600.484 189.224 599.252 189.48 597.759 189.48ZM598.687 186.056C599.487 186.056 600.159 185.917 600.703 185.64C601.257 185.352 601.695 185.027 602.015 184.664C602.345 184.301 602.569 183.997 602.687 183.752C602.911 183.283 603.039 182.739 603.071 182.12C603.113 181.491 603.135 180.968 603.135 180.552L604.415 180.872C603.124 181.085 602.079 181.267 601.279 181.416C600.479 181.555 599.833 181.683 599.343 181.8C598.852 181.917 598.42 182.045 598.047 182.184C597.62 182.355 597.273 182.541 597.007 182.744C596.751 182.936 596.559 183.149 596.431 183.384C596.313 183.619 596.255 183.88 596.255 184.168C596.255 184.563 596.351 184.904 596.543 185.192C596.745 185.469 597.028 185.683 597.391 185.832C597.753 185.981 598.185 186.056 598.687 186.056ZM612.854 196.68L616.182 187.528L616.246 190.216L608.726 171.72H613.238L618.294 184.808H617.27L622.294 171.72H626.646L616.886 196.68H612.854ZM633.071 189.48C631.834 189.48 630.783 189.245 629.919 188.776C629.066 188.296 628.415 187.661 627.967 186.872C627.53 186.072 627.311 185.192 627.311 184.232C627.311 183.432 627.434 182.701 627.679 182.04C627.925 181.379 628.319 180.797 628.863 180.296C629.418 179.784 630.159 179.357 631.087 179.016C631.727 178.781 632.49 178.573 633.375 178.392C634.261 178.211 635.263 178.04 636.383 177.88C637.503 177.709 638.735 177.523 640.079 177.32L638.511 178.184C638.511 177.16 638.266 176.408 637.775 175.928C637.285 175.448 636.463 175.208 635.311 175.208C634.671 175.208 634.005 175.363 633.311 175.672C632.618 175.981 632.133 176.531 631.855 177.32L627.919 176.072C628.357 174.643 629.178 173.48 630.383 172.584C631.589 171.688 633.231 171.24 635.311 171.24C636.837 171.24 638.191 171.475 639.375 171.944C640.559 172.413 641.455 173.224 642.063 174.376C642.405 175.016 642.607 175.656 642.671 176.296C642.735 176.936 642.767 177.651 642.767 178.44V189H638.959V185.448L639.503 186.184C638.661 187.347 637.749 188.189 636.767 188.712C635.797 189.224 634.565 189.48 633.071 189.48ZM633.999 186.056C634.799 186.056 635.471 185.917 636.015 185.64C636.57 185.352 637.007 185.027 637.327 184.664C637.658 184.301 637.882 183.997 637.999 183.752C638.223 183.283 638.351 182.739 638.383 182.12C638.426 181.491 638.447 180.968 638.447 180.552L639.727 180.872C638.437 181.085 637.391 181.267 636.591 181.416C635.791 181.555 635.146 181.683 634.655 181.8C634.165 181.917 633.733 182.045 633.359 182.184C632.933 182.355 632.586 182.541 632.319 182.744C632.063 182.936 631.871 183.149 631.743 183.384C631.626 183.619 631.567 183.88 631.567 184.168C631.567 184.563 631.663 184.904 631.855 185.192C632.058 185.469 632.341 185.683 632.703 185.832C633.066 185.981 633.498 186.056 633.999 186.056ZM655.408 189.48C653.69 189.48 652.256 189.08 651.104 188.28C649.952 187.48 649.082 186.392 648.496 185.016C647.92 183.64 647.632 182.088 647.632 180.36C647.632 178.632 647.92 177.08 648.496 175.704C649.072 174.328 649.92 173.24 651.04 172.44C652.16 171.64 653.541 171.24 655.184 171.24C656.837 171.24 658.277 171.635 659.504 172.424C660.73 173.213 661.68 174.296 662.352 175.672C663.034 177.037 663.376 178.6 663.376 180.36C663.376 182.088 663.04 183.64 662.368 185.016C661.706 186.392 660.778 187.48 659.584 188.28C658.389 189.08 656.997 189.48 655.408 189.48ZM646.896 189V165.96H651.28V177.16H650.736V189H646.896ZM654.704 185.608C655.642 185.608 656.41 185.373 657.008 184.904C657.605 184.435 658.048 183.805 658.336 183.016C658.624 182.216 658.768 181.331 658.768 180.36C658.768 179.4 658.618 178.525 658.32 177.736C658.021 176.936 657.557 176.301 656.928 175.832C656.309 175.352 655.514 175.112 654.544 175.112C653.637 175.112 652.901 175.331 652.336 175.768C651.781 176.205 651.376 176.819 651.12 177.608C650.864 178.397 650.736 179.315 650.736 180.36C650.736 181.405 650.864 182.323 651.12 183.112C651.376 183.901 651.792 184.515 652.368 184.952C652.954 185.389 653.733 185.608 654.704 185.608ZM667.216 189V165.48H671.568V189H667.216ZM684.397 189.48C682.626 189.48 681.064 189.101 679.709 188.344C678.365 187.576 677.309 186.525 676.541 185.192C675.784 183.848 675.405 182.312 675.405 180.584C675.405 178.696 675.778 177.053 676.525 175.656C677.272 174.259 678.301 173.176 679.613 172.408C680.925 171.629 682.434 171.24 684.141 171.24C685.954 171.24 687.496 171.667 688.765 172.52C690.034 173.373 690.973 174.573 691.581 176.12C692.189 177.667 692.402 179.485 692.221 181.576H687.917V179.976C687.917 178.216 687.634 176.952 687.069 176.184C686.514 175.405 685.602 175.016 684.333 175.016C682.85 175.016 681.757 175.469 681.053 176.376C680.36 177.272 680.013 178.6 680.013 180.36C680.013 181.971 680.36 183.219 681.053 184.104C681.757 184.979 682.786 185.416 684.141 185.416C684.994 185.416 685.725 185.229 686.333 184.856C686.941 184.483 687.405 183.944 687.725 183.24L692.077 184.488C691.426 186.067 690.397 187.293 688.989 188.168C687.592 189.043 686.061 189.48 684.397 189.48ZM678.669 181.576V178.344H690.125V181.576H678.669ZM710.944 189.48C709.237 189.48 707.696 189.181 706.32 188.584C704.955 187.976 703.829 187.112 702.944 185.992C702.069 184.861 701.515 183.517 701.28 181.96L705.824 181.288C706.144 182.611 706.805 183.629 707.808 184.344C708.811 185.059 709.952 185.416 711.232 185.416C711.947 185.416 712.64 185.304 713.312 185.08C713.984 184.856 714.533 184.525 714.96 184.088C715.397 183.651 715.616 183.112 715.616 182.472C715.616 182.237 715.579 182.013 715.504 181.8C715.44 181.576 715.328 181.368 715.168 181.176C715.008 180.984 714.779 180.803 714.48 180.632C714.192 180.461 713.824 180.307 713.376 180.168L707.392 178.408C706.944 178.28 706.421 178.099 705.824 177.864C705.237 177.629 704.667 177.293 704.112 176.856C703.557 176.419 703.093 175.843 702.72 175.128C702.357 174.403 702.176 173.491 702.176 172.392C702.176 170.845 702.565 169.56 703.344 168.536C704.123 167.512 705.163 166.749 706.464 166.248C707.765 165.747 709.205 165.501 710.784 165.512C712.373 165.533 713.792 165.805 715.04 166.328C716.288 166.851 717.333 167.613 718.176 168.616C719.019 169.608 719.627 170.824 720 172.264L715.296 173.064C715.125 172.317 714.811 171.688 714.352 171.176C713.893 170.664 713.344 170.275 712.704 170.008C712.075 169.741 711.413 169.597 710.72 169.576C710.037 169.555 709.392 169.651 708.784 169.864C708.187 170.067 707.696 170.365 707.312 170.76C706.939 171.155 706.752 171.624 706.752 172.168C706.752 172.669 706.907 173.08 707.216 173.4C707.525 173.709 707.915 173.96 708.384 174.152C708.853 174.344 709.333 174.504 709.824 174.632L713.824 175.72C714.421 175.88 715.083 176.093 715.808 176.36C716.533 176.616 717.227 176.979 717.888 177.448C718.56 177.907 719.109 178.515 719.536 179.272C719.973 180.029 720.192 180.989 720.192 182.152C720.192 183.389 719.931 184.472 719.408 185.4C718.896 186.317 718.203 187.08 717.328 187.688C716.453 188.285 715.461 188.733 714.352 189.032C713.253 189.331 712.117 189.48 710.944 189.48ZM732.189 189.48C730.471 189.48 729.037 189.08 727.885 188.28C726.733 187.48 725.863 186.392 725.277 185.016C724.701 183.64 724.413 182.088 724.413 180.36C724.413 178.632 724.701 177.08 725.277 175.704C725.853 174.328 726.701 173.24 727.821 172.44C728.941 171.64 730.322 171.24 731.965 171.24C733.618 171.24 735.058 171.635 736.285 172.424C737.511 173.213 738.461 174.296 739.133 175.672C739.815 177.037 740.157 178.6 740.157 180.36C740.157 182.088 739.821 183.64 739.149 185.016C738.487 186.392 737.559 187.48 736.365 188.28C735.17 189.08 733.778 189.48 732.189 189.48ZM723.677 196.68V171.72H727.517V183.56H728.061V196.68H723.677ZM731.485 185.608C732.423 185.608 733.191 185.373 733.789 184.904C734.386 184.435 734.829 183.805 735.117 183.016C735.405 182.216 735.549 181.331 735.549 180.36C735.549 179.4 735.399 178.525 735.101 177.736C734.802 176.936 734.338 176.301 733.709 175.832C733.09 175.352 732.295 175.112 731.325 175.112C730.418 175.112 729.682 175.331 729.117 175.768C728.562 176.205 728.157 176.819 727.901 177.608C727.645 178.397 727.517 179.315 727.517 180.36C727.517 181.405 727.645 182.323 727.901 183.112C728.157 183.901 728.573 184.515 729.149 184.952C729.735 185.389 730.514 185.608 731.485 185.608ZM751.454 189.48C749.715 189.48 748.19 189.091 746.878 188.312C745.566 187.533 744.542 186.461 743.806 185.096C743.08 183.72 742.718 182.141 742.718 180.36C742.718 178.557 743.091 176.973 743.838 175.608C744.584 174.232 745.614 173.16 746.926 172.392C748.238 171.624 749.747 171.24 751.454 171.24C753.192 171.24 754.718 171.629 756.03 172.408C757.352 173.187 758.382 174.264 759.118 175.64C759.854 177.005 760.222 178.579 760.222 180.36C760.222 182.152 759.848 183.736 759.102 185.112C758.366 186.477 757.336 187.549 756.014 188.328C754.702 189.096 753.182 189.48 751.454 189.48ZM751.454 185.416C752.851 185.416 753.891 184.947 754.574 184.008C755.267 183.059 755.614 181.843 755.614 180.36C755.614 178.824 755.262 177.597 754.558 176.68C753.864 175.763 752.83 175.304 751.454 175.304C750.504 175.304 749.726 175.517 749.118 175.944C748.51 176.371 748.056 176.963 747.758 177.72C747.47 178.477 747.326 179.357 747.326 180.36C747.326 181.907 747.672 183.139 748.366 184.056C749.07 184.963 750.099 185.416 751.454 185.416ZM774.108 189C772.913 189.224 771.74 189.32 770.588 189.288C769.447 189.267 768.423 189.069 767.516 188.696C766.62 188.312 765.937 187.699 765.468 186.856C765.041 186.067 764.817 185.267 764.796 184.456C764.775 183.635 764.764 182.707 764.764 181.672V166.92H769.116V181.416C769.116 182.088 769.121 182.696 769.132 183.24C769.153 183.773 769.265 184.2 769.468 184.52C769.852 185.128 770.465 185.459 771.308 185.512C772.151 185.565 773.084 185.523 774.108 185.384V189ZM761.82 175.08V171.72H774.108V175.08H761.82ZM778.279 169.32V165.48H782.631V169.32H778.279ZM778.279 189V171.72H782.631V189H778.279ZM788.868 189V171.784C788.868 171.347 788.878 170.851 788.9 170.296C788.921 169.741 789.006 169.181 789.156 168.616C789.316 168.051 789.604 167.539 790.02 167.08C790.553 166.483 791.129 166.077 791.748 165.864C792.377 165.64 792.985 165.523 793.572 165.512C794.158 165.491 794.66 165.48 795.076 165.48H797.22V169H795.236C794.553 169 794.046 169.176 793.716 169.528C793.385 169.869 793.22 170.28 793.22 170.76V189H788.868ZM786.148 175.08V171.72H797.22V175.08H786.148ZM801.979 196.68L805.307 187.528L805.371 190.216L797.851 171.72H802.363L807.419 184.808H806.395L811.419 171.72H815.771L806.011 196.68H801.979ZM187.72 233.48C186.003 233.48 184.568 233.08 183.416 232.28C182.264 231.48 181.395 230.392 180.808 229.016C180.232 227.64 179.944 226.088 179.944 224.36C179.944 222.632 180.232 221.08 180.808 219.704C181.384 218.328 182.232 217.24 183.352 216.44C184.472 215.64 185.853 215.24 187.496 215.24C189.149 215.24 190.589 215.635 191.816 216.424C193.043 217.213 193.992 218.296 194.664 219.672C195.347 221.037 195.688 222.6 195.688 224.36C195.688 226.088 195.352 227.64 194.68 229.016C194.019 230.392 193.091 231.48 191.896 232.28C190.701 233.08 189.309 233.48 187.72 233.48ZM179.208 240.68V215.72H183.048V227.56H183.592V240.68H179.208ZM187.016 229.608C187.955 229.608 188.723 229.373 189.32 228.904C189.917 228.435 190.36 227.805 190.648 227.016C190.936 226.216 191.08 225.331 191.08 224.36C191.08 223.4 190.931 222.525 190.632 221.736C190.333 220.936 189.869 220.301 189.24 219.832C188.621 219.352 187.827 219.112 186.856 219.112C185.949 219.112 185.213 219.331 184.648 219.768C184.093 220.205 183.688 220.819 183.432 221.608C183.176 222.397 183.048 223.315 183.048 224.36C183.048 225.405 183.176 226.323 183.432 227.112C183.688 227.901 184.104 228.515 184.68 228.952C185.267 229.389 186.045 229.608 187.016 229.608ZM199.529 233V209.48H203.881V233H199.529ZM213.478 233.48C212.24 233.48 211.19 233.245 210.326 232.776C209.472 232.296 208.822 231.661 208.374 230.872C207.936 230.072 207.718 229.192 207.718 228.232C207.718 227.432 207.84 226.701 208.086 226.04C208.331 225.379 208.726 224.797 209.27 224.296C209.824 223.784 210.566 223.357 211.494 223.016C212.134 222.781 212.896 222.573 213.782 222.392C214.667 222.211 215.67 222.04 216.79 221.88C217.91 221.709 219.142 221.523 220.486 221.32L218.918 222.184C218.918 221.16 218.672 220.408 218.182 219.928C217.691 219.448 216.87 219.208 215.718 219.208C215.078 219.208 214.411 219.363 213.718 219.672C213.024 219.981 212.539 220.531 212.262 221.32L208.326 220.072C208.763 218.643 209.584 217.48 210.79 216.584C211.995 215.688 213.638 215.24 215.718 215.24C217.243 215.24 218.598 215.475 219.782 215.944C220.966 216.413 221.862 217.224 222.47 218.376C222.811 219.016 223.014 219.656 223.078 220.296C223.142 220.936 223.174 221.651 223.174 222.44V233H219.366V229.448L219.91 230.184C219.067 231.347 218.155 232.189 217.174 232.712C216.203 233.224 214.971 233.48 213.478 233.48ZM214.406 230.056C215.206 230.056 215.878 229.917 216.422 229.64C216.976 229.352 217.414 229.027 217.734 228.664C218.064 228.301 218.288 227.997 218.406 227.752C218.63 227.283 218.758 226.739 218.79 226.12C218.832 225.491 218.854 224.968 218.854 224.552L220.134 224.872C218.843 225.085 217.798 225.267 216.998 225.416C216.198 225.555 215.552 225.683 215.062 225.8C214.571 225.917 214.139 226.045 213.766 226.184C213.339 226.355 212.992 226.541 212.726 226.744C212.47 226.936 212.278 227.149 212.15 227.384C212.032 227.619 211.974 227.88 211.974 228.168C211.974 228.563 212.07 228.904 212.262 229.192C212.464 229.469 212.747 229.683 213.11 229.832C213.472 229.981 213.904 230.056 214.406 230.056ZM228.573 240.68L231.901 231.528L231.965 234.216L224.445 215.72H228.957L234.013 228.808H232.989L238.013 215.72H242.365L232.605 240.68H228.573ZM244.935 233V209.48H249.287V233H244.935ZM254.404 213.32V209.48H258.756V213.32H254.404ZM254.404 233V215.72H258.756V233H254.404ZM270.305 233.48C268.129 233.48 266.369 232.989 265.025 232.008C263.691 231.016 262.881 229.619 262.593 227.816L267.041 227.144C267.222 227.955 267.622 228.589 268.241 229.048C268.87 229.507 269.665 229.736 270.625 229.736C271.414 229.736 272.022 229.587 272.449 229.288C272.875 228.979 273.089 228.552 273.089 228.008C273.089 227.667 273.003 227.395 272.833 227.192C272.662 226.979 272.278 226.771 271.681 226.568C271.094 226.365 270.177 226.099 268.929 225.768C267.521 225.405 266.395 225 265.553 224.552C264.71 224.104 264.102 223.571 263.729 222.952C263.355 222.323 263.169 221.565 263.169 220.68C263.169 219.571 263.451 218.611 264.017 217.8C264.582 216.979 265.377 216.349 266.401 215.912C267.435 215.464 268.651 215.24 270.049 215.24C271.403 215.24 272.603 215.448 273.649 215.864C274.694 216.28 275.537 216.872 276.177 217.64C276.827 218.408 277.227 219.315 277.377 220.36L272.929 221.16C272.854 220.52 272.577 220.013 272.097 219.64C271.617 219.267 270.966 219.048 270.145 218.984C269.345 218.931 268.699 219.037 268.209 219.304C267.729 219.571 267.489 219.955 267.489 220.456C267.489 220.755 267.59 221.005 267.793 221.208C268.006 221.411 268.438 221.619 269.089 221.832C269.75 222.045 270.753 222.323 272.097 222.664C273.409 223.005 274.459 223.405 275.249 223.864C276.049 224.312 276.63 224.856 276.993 225.496C277.355 226.125 277.537 226.888 277.537 227.784C277.537 229.555 276.897 230.947 275.617 231.96C274.337 232.973 272.566 233.48 270.305 233.48ZM291.421 233C290.226 233.224 289.053 233.32 287.901 233.288C286.759 233.267 285.735 233.069 284.829 232.696C283.933 232.312 283.25 231.699 282.781 230.856C282.354 230.067 282.13 229.267 282.109 228.456C282.087 227.635 282.077 226.707 282.077 225.672V210.92H286.429V225.416C286.429 226.088 286.434 226.696 286.445 227.24C286.466 227.773 286.578 228.2 286.781 228.52C287.165 229.128 287.778 229.459 288.621 229.512C289.463 229.565 290.397 229.523 291.421 229.384V233ZM279.133 219.08V215.72H291.421V219.08H279.133ZM305.358 233L300.078 215.688L304.334 215.72L307.47 226.024L310.654 215.72H314.27L317.454 226.024L320.59 215.72H324.846L319.566 233H316.238L312.462 221.736L308.686 233H305.358ZM328.06 213.32V209.48H332.412V213.32H328.06ZM328.06 233V215.72H332.412V233H328.06ZM347.577 233C346.382 233.224 345.209 233.32 344.057 233.288C342.915 233.267 341.891 233.069 340.985 232.696C340.089 232.312 339.406 231.699 338.937 230.856C338.51 230.067 338.286 229.267 338.265 228.456C338.243 227.635 338.233 226.707 338.233 225.672V210.92H342.585V225.416C342.585 226.088 342.59 226.696 342.601 227.24C342.622 227.773 342.734 228.2 342.937 228.52C343.321 229.128 343.934 229.459 344.777 229.512C345.619 229.565 346.553 229.523 347.577 229.384V233ZM335.289 219.08V215.72H347.577V219.08H335.289ZM363.204 233V224.84C363.204 224.445 363.182 223.944 363.14 223.336C363.097 222.717 362.964 222.099 362.74 221.48C362.516 220.861 362.148 220.344 361.636 219.928C361.134 219.512 360.42 219.304 359.492 219.304C359.118 219.304 358.718 219.363 358.292 219.48C357.865 219.597 357.465 219.827 357.092 220.168C356.718 220.499 356.409 220.989 356.164 221.64C355.929 222.291 355.812 223.155 355.812 224.232L353.316 223.048C353.316 221.683 353.593 220.403 354.148 219.208C354.702 218.013 355.534 217.048 356.644 216.312C357.764 215.576 359.172 215.208 360.868 215.208C362.222 215.208 363.326 215.437 364.18 215.896C365.033 216.355 365.694 216.936 366.164 217.64C366.644 218.344 366.985 219.08 367.188 219.848C367.39 220.605 367.513 221.299 367.556 221.928C367.598 222.557 367.62 223.016 367.62 223.304V233H363.204ZM351.396 233V209.96H355.268V221.8H355.812V233H351.396ZM382.978 233.48C381.74 233.48 380.69 233.245 379.826 232.776C378.972 232.296 378.322 231.661 377.874 230.872C377.436 230.072 377.218 229.192 377.218 228.232C377.218 227.432 377.34 226.701 377.586 226.04C377.831 225.379 378.226 224.797 378.77 224.296C379.324 223.784 380.066 223.357 380.994 223.016C381.634 222.781 382.396 222.573 383.282 222.392C384.167 222.211 385.17 222.04 386.29 221.88C387.41 221.709 388.642 221.523 389.986 221.32L388.418 222.184C388.418 221.16 388.172 220.408 387.682 219.928C387.191 219.448 386.37 219.208 385.218 219.208C384.578 219.208 383.911 219.363 383.218 219.672C382.524 219.981 382.039 220.531 381.762 221.32L377.826 220.072C378.263 218.643 379.084 217.48 380.29 216.584C381.495 215.688 383.138 215.24 385.218 215.24C386.743 215.24 388.098 215.475 389.282 215.944C390.466 216.413 391.362 217.224 391.97 218.376C392.311 219.016 392.514 219.656 392.578 220.296C392.642 220.936 392.674 221.651 392.674 222.44V233H388.866V229.448L389.41 230.184C388.567 231.347 387.655 232.189 386.674 232.712C385.703 233.224 384.471 233.48 382.978 233.48ZM383.906 230.056C384.706 230.056 385.378 229.917 385.922 229.64C386.476 229.352 386.914 229.027 387.234 228.664C387.564 228.301 387.788 227.997 387.906 227.752C388.13 227.283 388.258 226.739 388.29 226.12C388.332 225.491 388.354 224.968 388.354 224.552L389.634 224.872C388.343 225.085 387.298 225.267 386.498 225.416C385.698 225.555 385.052 225.683 384.562 225.8C384.071 225.917 383.639 226.045 383.266 226.184C382.839 226.355 382.492 226.541 382.226 226.744C381.97 226.936 381.778 227.149 381.65 227.384C381.532 227.619 381.474 227.88 381.474 228.168C381.474 228.563 381.57 228.904 381.762 229.192C381.964 229.469 382.247 229.683 382.61 229.832C382.972 229.981 383.404 230.056 383.906 230.056ZM410.856 233.48C409.064 233.48 407.528 233.08 406.248 232.28C404.968 231.48 403.987 230.392 403.304 229.016C402.621 227.64 402.28 226.088 402.28 224.36C402.28 222.611 402.632 221.048 403.336 219.672C404.051 218.296 405.053 217.213 406.344 216.424C407.635 215.635 409.16 215.24 410.92 215.24C412.957 215.24 414.664 215.757 416.04 216.792C417.427 217.816 418.312 219.219 418.696 221L414.344 222.152C414.088 221.256 413.64 220.557 413 220.056C412.371 219.555 411.656 219.304 410.856 219.304C409.939 219.304 409.187 219.528 408.6 219.976C408.013 220.413 407.581 221.016 407.304 221.784C407.027 222.541 406.888 223.4 406.888 224.36C406.888 225.864 407.219 227.085 407.88 228.024C408.552 228.952 409.544 229.416 410.856 229.416C411.837 229.416 412.584 229.192 413.096 228.744C413.608 228.296 413.992 227.656 414.248 226.824L418.696 227.752C418.205 229.587 417.277 231 415.912 231.992C414.547 232.984 412.861 233.48 410.856 233.48ZM421.748 233V209.48H426.1V233H421.748ZM431.216 213.32V209.48H435.568V213.32H431.216ZM431.216 233V215.72H435.568V233H431.216ZM447.981 233.48C446.189 233.48 444.653 233.08 443.373 232.28C442.093 231.48 441.112 230.392 440.429 229.016C439.746 227.64 439.405 226.088 439.405 224.36C439.405 222.611 439.757 221.048 440.461 219.672C441.176 218.296 442.178 217.213 443.469 216.424C444.76 215.635 446.285 215.24 448.045 215.24C450.082 215.24 451.789 215.757 453.165 216.792C454.552 217.816 455.437 219.219 455.821 221L451.469 222.152C451.213 221.256 450.765 220.557 450.125 220.056C449.496 219.555 448.781 219.304 447.981 219.304C447.064 219.304 446.312 219.528 445.725 219.976C445.138 220.413 444.706 221.016 444.429 221.784C444.152 222.541 444.013 223.4 444.013 224.36C444.013 225.864 444.344 227.085 445.005 228.024C445.677 228.952 446.669 229.416 447.981 229.416C448.962 229.416 449.709 229.192 450.221 228.744C450.733 228.296 451.117 227.656 451.373 226.824L455.821 227.752C455.33 229.587 454.402 231 453.037 231.992C451.672 232.984 449.986 233.48 447.981 233.48ZM458.989 233L459.021 209.96H463.437V224.04L469.293 215.72H474.669L468.429 224.36L475.085 233H469.421L463.437 224.68V233H458.989ZM490.86 233.48C489.121 233.48 487.596 233.091 486.284 232.312C484.972 231.533 483.948 230.461 483.212 229.096C482.486 227.72 482.124 226.141 482.124 224.36C482.124 222.557 482.497 220.973 483.244 219.608C483.99 218.232 485.02 217.16 486.332 216.392C487.644 215.624 489.153 215.24 490.86 215.24C492.598 215.24 494.124 215.629 495.436 216.408C496.758 217.187 497.788 218.264 498.524 219.64C499.26 221.005 499.628 222.579 499.628 224.36C499.628 226.152 499.254 227.736 498.508 229.112C497.772 230.477 496.742 231.549 495.42 232.328C494.108 233.096 492.588 233.48 490.86 233.48ZM490.86 229.416C492.257 229.416 493.297 228.947 493.98 228.008C494.673 227.059 495.02 225.843 495.02 224.36C495.02 222.824 494.668 221.597 493.964 220.68C493.27 219.763 492.236 219.304 490.86 219.304C489.91 219.304 489.132 219.517 488.524 219.944C487.916 220.371 487.462 220.963 487.164 221.72C486.876 222.477 486.732 223.357 486.732 224.36C486.732 225.907 487.078 227.139 487.772 228.056C488.476 228.963 489.505 229.416 490.86 229.416ZM504.586 233V215.784C504.586 215.347 504.597 214.851 504.618 214.296C504.64 213.741 504.725 213.181 504.874 212.616C505.034 212.051 505.322 211.539 505.738 211.08C506.272 210.483 506.848 210.077 507.466 209.864C508.096 209.64 508.704 209.523 509.29 209.512C509.877 209.491 510.378 209.48 510.794 209.48H512.938V213H510.954C510.272 213 509.765 213.176 509.434 213.528C509.104 213.869 508.938 214.28 508.938 214.76V233H504.586ZM501.866 219.08V215.72H512.938V219.08H501.866ZM530.376 233.48C528.659 233.48 527.224 233.08 526.072 232.28C524.92 231.48 524.051 230.392 523.464 229.016C522.888 227.64 522.6 226.088 522.6 224.36C522.6 222.632 522.888 221.08 523.464 219.704C524.04 218.328 524.888 217.24 526.008 216.44C527.128 215.64 528.51 215.24 530.152 215.24C531.806 215.24 533.246 215.635 534.472 216.424C535.699 217.213 536.648 218.296 537.32 219.672C538.003 221.037 538.344 222.6 538.344 224.36C538.344 226.088 538.008 227.64 537.336 229.016C536.675 230.392 535.747 231.48 534.552 232.28C533.358 233.08 531.966 233.48 530.376 233.48ZM521.864 233V209.96H526.248V221.16H525.704V233H521.864ZM529.672 229.608C530.611 229.608 531.379 229.373 531.976 228.904C532.574 228.435 533.016 227.805 533.304 227.016C533.592 226.216 533.736 225.331 533.736 224.36C533.736 223.4 533.587 222.525 533.288 221.736C532.99 220.936 532.526 220.301 531.896 219.832C531.278 219.352 530.483 219.112 529.512 219.112C528.606 219.112 527.87 219.331 527.304 219.768C526.75 220.205 526.344 220.819 526.088 221.608C525.832 222.397 525.704 223.315 525.704 224.36C525.704 225.405 525.832 226.323 526.088 227.112C526.344 227.901 526.76 228.515 527.336 228.952C527.923 229.389 528.702 229.608 529.672 229.608ZM548.297 233.512C546.942 233.512 545.838 233.283 544.985 232.824C544.132 232.365 543.465 231.784 542.985 231.08C542.516 230.376 542.18 229.645 541.977 228.888C541.774 228.12 541.652 227.421 541.609 226.792C541.566 226.163 541.545 225.704 541.545 225.416V215.72H545.961V223.88C545.961 224.275 545.982 224.781 546.025 225.4C546.068 226.008 546.201 226.621 546.425 227.24C546.649 227.859 547.012 228.376 547.513 228.792C548.025 229.208 548.745 229.416 549.673 229.416C550.046 229.416 550.446 229.357 550.873 229.24C551.3 229.123 551.7 228.899 552.073 228.568C552.446 228.227 552.75 227.731 552.985 227.08C553.23 226.419 553.353 225.555 553.353 224.488L555.849 225.672C555.849 227.037 555.572 228.317 555.017 229.512C554.462 230.707 553.625 231.672 552.505 232.408C551.396 233.144 549.993 233.512 548.297 233.512ZM553.897 233V227.272H553.353V215.72H557.737V233H553.897ZM572.577 233C571.382 233.224 570.209 233.32 569.057 233.288C567.915 233.267 566.891 233.069 565.985 232.696C565.089 232.312 564.406 231.699 563.937 230.856C563.51 230.067 563.286 229.267 563.265 228.456C563.243 227.635 563.233 226.707 563.233 225.672V210.92H567.585V225.416C567.585 226.088 567.59 226.696 567.601 227.24C567.622 227.773 567.734 228.2 567.937 228.52C568.321 229.128 568.934 229.459 569.777 229.512C570.619 229.565 571.553 229.523 572.577 229.384V233ZM560.289 219.08V215.72H572.577V219.08H560.289ZM584.865 233C583.67 233.224 582.497 233.32 581.345 233.288C580.203 233.267 579.179 233.069 578.273 232.696C577.377 232.312 576.694 231.699 576.225 230.856C575.798 230.067 575.574 229.267 575.553 228.456C575.531 227.635 575.521 226.707 575.521 225.672V210.92H579.873V225.416C579.873 226.088 579.878 226.696 579.889 227.24C579.91 227.773 580.022 228.2 580.225 228.52C580.609 229.128 581.222 229.459 582.065 229.512C582.907 229.565 583.841 229.523 584.865 229.384V233ZM572.577 219.08V215.72H584.865V219.08H572.577ZM596.485 233.48C594.746 233.48 593.221 233.091 591.909 232.312C590.597 231.533 589.573 230.461 588.837 229.096C588.111 227.72 587.749 226.141 587.749 224.36C587.749 222.557 588.122 220.973 588.869 219.608C589.615 218.232 590.645 217.16 591.957 216.392C593.269 215.624 594.778 215.24 596.485 215.24C598.223 215.24 599.749 215.629 601.061 216.408C602.383 217.187 603.413 218.264 604.149 219.64C604.885 221.005 605.253 222.579 605.253 224.36C605.253 226.152 604.879 227.736 604.133 229.112C603.397 230.477 602.367 231.549 601.045 232.328C599.733 233.096 598.213 233.48 596.485 233.48ZM596.485 229.416C597.882 229.416 598.922 228.947 599.605 228.008C600.298 227.059 600.645 225.843 600.645 224.36C600.645 222.824 600.293 221.597 599.589 220.68C598.895 219.763 597.861 219.304 596.485 219.304C595.535 219.304 594.757 219.517 594.149 219.944C593.541 220.371 593.087 220.963 592.789 221.72C592.501 222.477 592.357 223.357 592.357 224.36C592.357 225.907 592.703 227.139 593.397 228.056C594.101 228.963 595.13 229.416 596.485 229.416ZM620.547 233V224.84C620.547 224.445 620.526 223.944 620.483 223.336C620.441 222.717 620.307 222.099 620.083 221.48C619.859 220.861 619.491 220.344 618.979 219.928C618.478 219.512 617.763 219.304 616.835 219.304C616.462 219.304 616.062 219.363 615.635 219.48C615.209 219.597 614.809 219.827 614.435 220.168C614.062 220.499 613.753 220.989 613.507 221.64C613.273 222.291 613.155 223.155 613.155 224.232L610.659 223.048C610.659 221.683 610.937 220.403 611.491 219.208C612.046 218.013 612.878 217.048 613.987 216.312C615.107 215.576 616.515 215.208 618.211 215.208C619.566 215.208 620.67 215.437 621.523 215.896C622.377 216.355 623.038 216.936 623.507 217.64C623.987 218.344 624.329 219.08 624.531 219.848C624.734 220.605 624.857 221.299 624.899 221.928C624.942 222.557 624.963 223.016 624.963 223.304V233H620.547ZM608.739 233V215.72H612.611V221.448H613.155V233H608.739Z" fill="white"/>
<path d="M33.84 362V345.44H36.6115V359.401H43.9255V362H33.84ZM51.5202 362.345C50.2628 362.345 49.1588 362.073 48.2082 361.528C47.2575 360.984 46.5138 360.229 45.9772 359.263C45.4482 358.297 45.1837 357.185 45.1837 355.928C45.1837 354.571 45.4443 353.394 45.9657 352.397C46.487 351.393 47.2115 350.615 48.1392 350.063C49.0668 349.511 50.1402 349.235 51.3592 349.235C52.6472 349.235 53.7397 349.538 54.6367 350.143C55.5413 350.741 56.2122 351.589 56.6492 352.685C57.0862 353.781 57.251 355.073 57.1437 356.56H54.3952V355.548C54.3875 354.199 54.1498 353.214 53.6822 352.593C53.2145 351.972 52.4785 351.661 51.4742 351.661C50.3395 351.661 49.4962 352.014 48.9442 352.719C48.3922 353.417 48.1162 354.441 48.1162 355.79C48.1162 357.047 48.3922 358.021 48.9442 358.711C49.4962 359.401 50.3012 359.746 51.3592 359.746C52.0415 359.746 52.628 359.596 53.1187 359.297C53.617 358.991 54.0003 358.55 54.2687 357.975L57.0057 358.803C56.5303 359.922 55.7943 360.792 54.7977 361.413C53.8087 362.034 52.7162 362.345 51.5202 362.345ZM47.2422 356.56V354.467H55.7867V356.56H47.2422ZM66.9891 362C66.1688 362.153 65.3638 362.219 64.5741 362.196C63.7921 362.18 63.0906 362.038 62.4696 361.77C61.8486 361.494 61.3771 361.061 61.0551 360.47C60.7714 359.934 60.6219 359.386 60.6066 358.826C60.5913 358.266 60.5836 357.634 60.5836 356.928V346.13H63.3436V356.767C63.3436 357.266 63.3474 357.703 63.3551 358.078C63.3704 358.454 63.4509 358.761 63.5966 358.998C63.8726 359.458 64.3134 359.715 64.9191 359.769C65.5248 359.823 66.2148 359.792 66.9891 359.677V362ZM58.3296 351.753V349.58H66.9891V351.753H58.3296ZM70.0048 351.328L70.1658 350.132C70.5185 350.163 70.7983 350.105 71.0053 349.959C71.2123 349.806 71.3503 349.595 71.4193 349.327C71.496 349.051 71.5151 348.74 71.4768 348.395H70.0048V345.44H72.8453V348.51C72.8453 349.515 72.6076 350.274 72.1323 350.787C71.657 351.301 70.9478 351.481 70.0048 351.328ZM79.1496 362.345C77.6163 362.345 76.3705 362 75.4121 361.31C74.4538 360.62 73.8711 359.65 73.6641 358.4L76.4931 357.963C76.6388 358.577 76.9608 359.06 77.4591 359.412C77.9575 359.765 78.5861 359.941 79.3451 359.941C80.0121 359.941 80.5258 359.811 80.8861 359.55C81.2541 359.282 81.4381 358.918 81.4381 358.458C81.4381 358.174 81.3691 357.948 81.2311 357.779C81.1008 357.603 80.8095 357.434 80.3571 357.273C79.9048 357.112 79.211 356.909 78.2756 356.664C77.233 356.388 76.405 356.093 75.7916 355.778C75.1783 355.456 74.7375 355.077 74.4691 354.64C74.2008 354.203 74.0666 353.674 74.0666 353.053C74.0666 352.279 74.2698 351.604 74.6761 351.029C75.0825 350.454 75.6498 350.013 76.3781 349.706C77.1065 349.392 77.9651 349.235 78.9541 349.235C79.9201 349.235 80.775 349.384 81.5186 349.683C82.27 349.982 82.8756 350.408 83.3356 350.96C83.7956 351.512 84.0793 352.16 84.1866 352.903L81.3576 353.409C81.2886 352.88 81.0471 352.463 80.6331 352.156C80.2268 351.849 79.6825 351.677 79.0001 351.638C78.3485 351.6 77.8233 351.7 77.4246 351.937C77.026 352.167 76.8266 352.493 76.8266 352.915C76.8266 353.153 76.9071 353.356 77.0681 353.524C77.2291 353.693 77.5511 353.862 78.0341 354.03C78.5248 354.199 79.2531 354.406 80.2191 354.651C81.2081 354.904 81.9978 355.196 82.5881 355.525C83.1861 355.847 83.6155 356.235 83.8761 356.687C84.1445 357.139 84.2786 357.687 84.2786 358.331C84.2786 359.581 83.8225 360.562 82.9101 361.275C82.0055 361.989 80.752 362.345 79.1496 362.345ZM92.483 362V349.384C92.483 349.07 92.4945 348.725 92.5175 348.349C92.5405 347.966 92.6057 347.587 92.713 347.211C92.8203 346.835 93.0158 346.494 93.2995 346.187C93.6522 345.796 94.0317 345.528 94.438 345.382C94.852 345.229 95.2583 345.145 95.657 345.129C96.0557 345.106 96.4045 345.095 96.7035 345.095H98.256V347.349H96.8185C96.2895 347.349 95.8947 347.483 95.634 347.751C95.381 348.012 95.2545 348.357 95.2545 348.786V362H92.483ZM90.482 351.753V349.58H98.256V351.753H90.482ZM100.671 347.694V345.152H103.442V347.694H100.671ZM100.671 362V349.58H103.442V362H100.671ZM115.491 362V356.02C115.491 355.629 115.464 355.196 115.41 354.72C115.356 354.245 115.23 353.789 115.031 353.352C114.839 352.907 114.548 352.543 114.157 352.259C113.773 351.976 113.252 351.834 112.593 351.834C112.24 351.834 111.891 351.891 111.546 352.006C111.201 352.121 110.887 352.321 110.603 352.604C110.327 352.88 110.105 353.264 109.936 353.754C109.767 354.237 109.683 354.858 109.683 355.617L108.039 354.916C108.039 353.858 108.242 352.9 108.648 352.041C109.062 351.182 109.668 350.5 110.465 349.994C111.262 349.48 112.244 349.223 113.409 349.223C114.329 349.223 115.088 349.377 115.686 349.683C116.284 349.99 116.759 350.381 117.112 350.856C117.465 351.332 117.725 351.838 117.894 352.374C118.063 352.911 118.17 353.421 118.216 353.904C118.27 354.379 118.297 354.766 118.297 355.065V362H115.491ZM106.877 362V349.58H109.35V353.432H109.683V362H106.877ZM126.075 362.345C124.933 362.345 123.936 362.058 123.085 361.482C122.234 360.907 121.575 360.125 121.107 359.136C120.639 358.147 120.405 357.032 120.405 355.79C120.405 354.533 120.639 353.413 121.107 352.432C121.582 351.443 122.253 350.665 123.119 350.097C123.986 349.522 125.005 349.235 126.178 349.235C127.359 349.235 128.348 349.522 129.145 350.097C129.95 350.665 130.56 351.443 130.974 352.432C131.388 353.421 131.595 354.54 131.595 355.79C131.595 357.024 131.388 358.14 130.974 359.136C130.56 360.125 129.943 360.907 129.122 361.482C128.302 362.058 127.286 362.345 126.075 362.345ZM126.5 359.861C127.244 359.861 127.842 359.692 128.294 359.355C128.754 359.01 129.088 358.531 129.295 357.917C129.51 357.304 129.617 356.595 129.617 355.79C129.617 354.977 129.51 354.268 129.295 353.662C129.088 353.049 128.762 352.574 128.317 352.236C127.873 351.891 127.298 351.719 126.592 351.719C125.849 351.719 125.235 351.903 124.752 352.271C124.269 352.631 123.913 353.122 123.683 353.743C123.453 354.356 123.338 355.039 123.338 355.79C123.338 356.549 123.449 357.239 123.671 357.86C123.901 358.473 124.25 358.96 124.718 359.32C125.186 359.681 125.78 359.861 126.5 359.861ZM129.617 362V353.283H129.272V345.44H132.066V362H129.617ZM144.691 362.345C143.157 362.345 141.911 362 140.953 361.31C139.995 360.62 139.412 359.65 139.205 358.4L142.034 357.963C142.18 358.577 142.502 359.06 143 359.412C143.498 359.765 144.127 359.941 144.886 359.941C145.553 359.941 146.067 359.811 146.427 359.55C146.795 359.282 146.979 358.918 146.979 358.458C146.979 358.174 146.91 357.948 146.772 357.779C146.642 357.603 146.35 357.434 145.898 357.273C145.446 357.112 144.752 356.909 143.817 356.664C142.774 356.388 141.946 356.093 141.333 355.778C140.719 355.456 140.278 355.077 140.01 354.64C139.742 354.203 139.608 353.674 139.608 353.053C139.608 352.279 139.811 351.604 140.217 351.029C140.623 350.454 141.191 350.013 141.919 349.706C142.647 349.392 143.506 349.235 144.495 349.235C145.461 349.235 146.316 349.384 147.06 349.683C147.811 349.982 148.417 350.408 148.877 350.96C149.337 351.512 149.62 352.16 149.728 352.903L146.899 353.409C146.83 352.88 146.588 352.463 146.174 352.156C145.768 351.849 145.223 351.677 144.541 351.638C143.889 351.6 143.364 351.7 142.966 351.937C142.567 352.167 142.368 352.493 142.368 352.915C142.368 353.153 142.448 353.356 142.609 353.524C142.77 353.693 143.092 353.862 143.575 354.03C144.066 354.199 144.794 354.406 145.76 354.651C146.749 354.904 147.539 355.196 148.129 355.525C148.727 355.847 149.156 356.235 149.417 356.687C149.685 357.139 149.82 357.687 149.82 358.331C149.82 359.581 149.363 360.562 148.451 361.275C147.546 361.989 146.293 362.345 144.691 362.345ZM157.824 362.345C156.582 362.345 155.497 362.065 154.57 361.505C153.642 360.946 152.921 360.175 152.408 359.194C151.902 358.205 151.649 357.07 151.649 355.79C151.649 354.487 151.909 353.344 152.431 352.363C152.952 351.382 153.676 350.615 154.604 350.063C155.532 349.511 156.605 349.235 157.824 349.235C159.074 349.235 160.162 349.515 161.09 350.074C162.018 350.634 162.738 351.408 163.252 352.397C163.766 353.379 164.023 354.51 164.023 355.79C164.023 357.078 163.762 358.216 163.241 359.205C162.727 360.187 162.006 360.957 161.079 361.517C160.151 362.069 159.066 362.345 157.824 362.345ZM157.824 359.746C158.928 359.746 159.748 359.378 160.285 358.642C160.822 357.906 161.09 356.955 161.09 355.79C161.09 354.586 160.818 353.628 160.274 352.915C159.729 352.194 158.913 351.834 157.824 351.834C157.08 351.834 156.467 352.003 155.984 352.34C155.509 352.67 155.156 353.133 154.926 353.731C154.696 354.322 154.581 355.008 154.581 355.79C154.581 356.994 154.853 357.956 155.398 358.676C155.95 359.389 156.758 359.746 157.824 359.746ZM181.472 362V354.456C181.472 353.605 181.261 352.942 180.839 352.466C180.418 351.983 179.846 351.742 179.126 351.742C178.681 351.742 178.282 351.845 177.93 352.052C177.577 352.252 177.297 352.551 177.09 352.949C176.883 353.34 176.78 353.808 176.78 354.352L175.549 353.628C175.542 352.769 175.733 352.014 176.124 351.362C176.523 350.703 177.06 350.189 177.734 349.821C178.409 349.453 179.16 349.27 179.988 349.27C181.361 349.27 182.411 349.683 183.139 350.511C183.875 351.332 184.243 352.413 184.243 353.754V362H181.472ZM166.533 362V349.58H168.983V353.432H169.328V362H166.533ZM174.02 362V354.49C174.02 353.624 173.809 352.949 173.387 352.466C172.966 351.983 172.391 351.742 171.662 351.742C170.957 351.742 170.39 351.983 169.96 352.466C169.539 352.949 169.328 353.578 169.328 354.352L168.086 353.524C168.086 352.719 168.285 351.995 168.684 351.351C169.082 350.707 169.619 350.201 170.294 349.833C170.976 349.457 171.739 349.27 172.582 349.27C173.51 349.27 174.284 349.469 174.905 349.867C175.534 350.258 176.002 350.795 176.308 351.477C176.623 352.152 176.78 352.915 176.78 353.766V362H174.02ZM192.687 362.345C191.43 362.345 190.326 362.073 189.375 361.528C188.424 360.984 187.681 360.229 187.144 359.263C186.615 358.297 186.351 357.185 186.351 355.928C186.351 354.571 186.611 353.394 187.133 352.397C187.654 351.393 188.378 350.615 189.306 350.063C190.234 349.511 191.307 349.235 192.526 349.235C193.814 349.235 194.907 349.538 195.804 350.143C196.708 350.741 197.379 351.589 197.816 352.685C198.253 353.781 198.418 355.073 198.311 356.56H195.562V355.548C195.554 354.199 195.317 353.214 194.849 352.593C194.381 351.972 193.645 351.661 192.641 351.661C191.506 351.661 190.663 352.014 190.111 352.719C189.559 353.417 189.283 354.441 189.283 355.79C189.283 357.047 189.559 358.021 190.111 358.711C190.663 359.401 191.468 359.746 192.526 359.746C193.208 359.746 193.795 359.596 194.286 359.297C194.784 358.991 195.167 358.55 195.436 357.975L198.173 358.803C197.697 359.922 196.961 360.792 195.965 361.413C194.976 362.034 193.883 362.345 192.687 362.345ZM188.409 356.56V354.467H196.954V356.56H188.409ZM208.156 362C207.336 362.153 206.531 362.219 205.741 362.196C204.959 362.18 204.258 362.038 203.637 361.77C203.016 361.494 202.544 361.061 202.222 360.47C201.938 359.934 201.789 359.386 201.774 358.826C201.758 358.266 201.751 357.634 201.751 356.928V346.13H204.511V356.767C204.511 357.266 204.514 357.703 204.522 358.078C204.537 358.454 204.618 358.761 204.764 358.998C205.04 359.458 205.48 359.715 206.086 359.769C206.692 359.823 207.382 359.792 208.156 359.677V362ZM199.497 351.753V349.58H208.156V351.753H199.497ZM219.417 362V356.02C219.417 355.629 219.39 355.196 219.337 354.72C219.283 354.245 219.157 353.789 218.957 353.352C218.766 352.907 218.474 352.543 218.083 352.259C217.7 351.976 217.179 351.834 216.519 351.834C216.167 351.834 215.818 351.891 215.473 352.006C215.128 352.121 214.813 352.321 214.53 352.604C214.254 352.88 214.031 353.264 213.863 353.754C213.694 354.237 213.61 354.858 213.61 355.617L211.965 354.916C211.965 353.858 212.168 352.9 212.575 352.041C212.989 351.182 213.594 350.5 214.392 349.994C215.189 349.48 216.17 349.223 217.336 349.223C218.256 349.223 219.015 349.377 219.613 349.683C220.211 349.99 220.686 350.381 221.039 350.856C221.391 351.332 221.652 351.838 221.821 352.374C221.989 352.911 222.097 353.421 222.143 353.904C222.196 354.379 222.223 354.766 222.223 355.065V362H219.417ZM210.804 362V345.44H213.276V354.157H213.61V362H210.804ZM225.454 347.694V345.152H228.226V347.694H225.454ZM225.454 362V349.58H228.226V362H225.454ZM240.261 362V356.02C240.261 355.629 240.234 355.196 240.181 354.72C240.127 354.245 240 353.789 239.801 353.352C239.609 352.907 239.318 352.543 238.927 352.259C238.544 351.976 238.022 351.834 237.363 351.834C237.01 351.834 236.662 351.891 236.317 352.006C235.972 352.121 235.657 352.321 235.374 352.604C235.098 352.88 234.875 353.264 234.707 353.754C234.538 354.237 234.454 354.858 234.454 355.617L232.809 354.916C232.809 353.858 233.012 352.9 233.419 352.041C233.833 351.182 234.438 350.5 235.236 349.994C236.033 349.48 237.014 349.223 238.18 349.223C239.1 349.223 239.859 349.377 240.457 349.683C241.055 349.99 241.53 350.381 241.883 350.856C242.235 351.332 242.496 351.838 242.665 352.374C242.833 352.911 242.941 353.421 242.987 353.904C243.04 354.379 243.067 354.766 243.067 355.065V362H240.261ZM231.648 362V349.58H234.12V353.432H234.454V362H231.648ZM251.289 367.865C250.599 367.865 249.936 367.758 249.3 367.543C248.671 367.328 248.104 367.018 247.598 366.612C247.092 366.213 246.678 365.73 246.356 365.163L248.909 363.898C249.146 364.35 249.48 364.683 249.909 364.898C250.346 365.12 250.81 365.232 251.301 365.232C251.876 365.232 252.389 365.128 252.842 364.921C253.294 364.722 253.643 364.423 253.888 364.024C254.141 363.633 254.26 363.142 254.245 362.552V359.021H254.59V349.58H257.016V362.598C257.016 362.912 257.001 363.211 256.97 363.495C256.947 363.786 256.905 364.07 256.844 364.346C256.66 365.151 256.307 365.81 255.786 366.324C255.264 366.845 254.616 367.233 253.842 367.486C253.075 367.739 252.224 367.865 251.289 367.865ZM251.048 362.345C249.905 362.345 248.909 362.058 248.058 361.482C247.207 360.907 246.547 360.125 246.08 359.136C245.612 358.147 245.378 357.032 245.378 355.79C245.378 354.533 245.612 353.413 246.08 352.432C246.555 351.443 247.226 350.665 248.092 350.097C248.958 349.522 249.978 349.235 251.151 349.235C252.332 349.235 253.321 349.522 254.118 350.097C254.923 350.665 255.533 351.443 255.947 352.432C256.361 353.421 256.568 354.54 256.568 355.79C256.568 357.024 256.361 358.14 255.947 359.136C255.533 360.125 254.915 360.907 254.095 361.482C253.275 362.058 252.259 362.345 251.048 362.345ZM251.473 359.861C252.217 359.861 252.815 359.692 253.267 359.355C253.727 359.01 254.061 358.531 254.268 357.917C254.482 357.304 254.59 356.595 254.59 355.79C254.59 354.977 254.482 354.268 254.268 353.662C254.061 353.049 253.735 352.574 253.29 352.236C252.845 351.891 252.27 351.719 251.565 351.719C250.821 351.719 250.208 351.903 249.725 352.271C249.242 352.631 248.886 353.122 248.656 353.743C248.426 354.356 248.311 355.039 248.311 355.79C248.311 356.549 248.422 357.239 248.644 357.86C248.874 358.473 249.223 358.96 249.691 359.32C250.158 359.681 250.752 359.861 251.473 359.861ZM265.926 362V349.384C265.926 349.07 265.938 348.725 265.961 348.349C265.984 347.966 266.049 347.587 266.156 347.211C266.264 346.835 266.459 346.494 266.743 346.187C267.096 345.796 267.475 345.528 267.881 345.382C268.295 345.229 268.702 345.145 269.1 345.129C269.499 345.106 269.848 345.095 270.147 345.095H271.699V347.349H270.262C269.733 347.349 269.338 347.483 269.077 347.751C268.824 348.012 268.698 348.357 268.698 348.786V362H265.926ZM263.925 351.753V349.58H271.699V351.753H263.925ZM278.574 362.345C277.332 362.345 276.247 362.065 275.32 361.505C274.392 360.946 273.671 360.175 273.158 359.194C272.652 358.205 272.399 357.07 272.399 355.79C272.399 354.487 272.659 353.344 273.181 352.363C273.702 351.382 274.426 350.615 275.354 350.063C276.282 349.511 277.355 349.235 278.574 349.235C279.824 349.235 280.912 349.515 281.84 350.074C282.768 350.634 283.488 351.408 284.002 352.397C284.516 353.379 284.773 354.51 284.773 355.79C284.773 357.078 284.512 358.216 283.991 359.205C283.477 360.187 282.756 360.957 281.829 361.517C280.901 362.069 279.816 362.345 278.574 362.345ZM278.574 359.746C279.678 359.746 280.498 359.378 281.035 358.642C281.572 357.906 281.84 356.955 281.84 355.79C281.84 354.586 281.568 353.628 281.024 352.915C280.479 352.194 279.663 351.834 278.574 351.834C277.83 351.834 277.217 352.003 276.734 352.34C276.259 352.67 275.906 353.133 275.676 353.731C275.446 354.322 275.331 355.008 275.331 355.79C275.331 356.994 275.603 357.956 276.148 358.676C276.7 359.389 277.508 359.746 278.574 359.746ZM287.306 362V349.58H289.756V352.604L289.457 352.213C289.61 351.799 289.813 351.424 290.066 351.086C290.327 350.741 290.637 350.458 290.998 350.235C291.304 350.028 291.642 349.867 292.01 349.752C292.385 349.63 292.769 349.557 293.16 349.534C293.551 349.503 293.93 349.519 294.298 349.58V352.167C293.93 352.06 293.505 352.026 293.022 352.064C292.546 352.102 292.117 352.236 291.734 352.466C291.35 352.673 291.036 352.938 290.791 353.26C290.553 353.582 290.377 353.95 290.262 354.364C290.147 354.77 290.089 355.211 290.089 355.686V362H287.306ZM302.73 367.52L305.122 360.953L305.168 362.886L299.752 349.58H302.638L306.479 359.424H305.743L309.481 349.58H312.252L305.329 367.52H302.73ZM319.004 362.345C317.762 362.345 316.677 362.065 315.749 361.505C314.822 360.946 314.101 360.175 313.587 359.194C313.081 358.205 312.828 357.07 312.828 355.79C312.828 354.487 313.089 353.344 313.61 352.363C314.132 351.382 314.856 350.615 315.784 350.063C316.711 349.511 317.785 349.235 319.004 349.235C320.253 349.235 321.342 349.515 322.27 350.074C323.197 350.634 323.918 351.408 324.432 352.397C324.945 353.379 325.202 354.51 325.202 355.79C325.202 357.078 324.942 358.216 324.42 359.205C323.907 360.187 323.186 360.957 322.258 361.517C321.331 362.069 320.246 362.345 319.004 362.345ZM319.004 359.746C320.108 359.746 320.928 359.378 321.465 358.642C322.001 357.906 322.27 356.955 322.27 355.79C322.27 354.586 321.998 353.628 321.453 352.915C320.909 352.194 320.092 351.834 319.004 351.834C318.26 351.834 317.647 352.003 317.164 352.34C316.688 352.67 316.336 353.133 316.106 353.731C315.876 354.322 315.761 355.008 315.761 355.79C315.761 356.994 316.033 357.956 316.577 358.676C317.129 359.389 317.938 359.746 319.004 359.746ZM332.393 362.357C331.473 362.357 330.714 362.203 330.116 361.896C329.518 361.59 329.043 361.199 328.69 360.723C328.338 360.248 328.077 359.742 327.908 359.205C327.74 358.669 327.629 358.163 327.575 357.687C327.529 357.204 327.506 356.813 327.506 356.514V349.58H330.312V355.56C330.312 355.943 330.339 356.376 330.392 356.859C330.446 357.335 330.569 357.795 330.76 358.239C330.96 358.676 331.251 359.037 331.634 359.32C332.025 359.604 332.551 359.746 333.21 359.746C333.563 359.746 333.911 359.688 334.256 359.573C334.601 359.458 334.912 359.263 335.188 358.987C335.472 358.703 335.698 358.316 335.866 357.825C336.035 357.335 336.119 356.714 336.119 355.962L337.764 356.664C337.764 357.722 337.557 358.68 337.143 359.539C336.737 360.398 336.135 361.084 335.337 361.597C334.54 362.104 333.559 362.357 332.393 362.357ZM336.453 362V358.147H336.119V349.58H338.902V362H336.453ZM342.133 362V349.58H344.583V352.604L344.284 352.213C344.437 351.799 344.64 351.424 344.893 351.086C345.154 350.741 345.465 350.458 345.825 350.235C346.132 350.028 346.469 349.867 346.837 349.752C347.213 349.63 347.596 349.557 347.987 349.534C348.378 349.503 348.757 349.519 349.125 349.58V352.167C348.757 352.06 348.332 352.026 347.849 352.064C347.374 352.102 346.944 352.236 346.561 352.466C346.178 352.673 345.863 352.938 345.618 353.26C345.38 353.582 345.204 353.95 345.089 354.364C344.974 354.77 344.916 355.211 344.916 355.686V362H342.133ZM361.893 362.345C360.682 362.345 359.666 362.058 358.845 361.482C358.025 360.907 357.408 360.125 356.994 359.136C356.58 358.14 356.373 357.024 356.373 355.79C356.373 354.54 356.58 353.421 356.994 352.432C357.408 351.443 358.014 350.665 358.811 350.097C359.616 349.522 360.609 349.235 361.789 349.235C362.962 349.235 363.978 349.522 364.837 350.097C365.703 350.665 366.374 351.443 366.849 352.432C367.325 353.413 367.562 354.533 367.562 355.79C367.562 357.032 367.329 358.147 366.861 359.136C366.393 360.125 365.734 360.907 364.883 361.482C364.032 362.058 363.035 362.345 361.893 362.345ZM355.901 367.52V349.58H358.351V358.297H358.696V367.52H355.901ZM361.467 359.861C362.188 359.861 362.782 359.681 363.25 359.32C363.718 358.96 364.063 358.473 364.285 357.86C364.515 357.239 364.63 356.549 364.63 355.79C364.63 355.039 364.515 354.356 364.285 353.743C364.055 353.122 363.698 352.631 363.215 352.271C362.732 351.903 362.119 351.719 361.375 351.719C360.67 351.719 360.095 351.891 359.65 352.236C359.206 352.574 358.876 353.049 358.661 353.662C358.454 354.268 358.351 354.977 358.351 355.79C358.351 356.595 358.454 357.304 358.661 357.917C358.876 358.531 359.21 359.01 359.662 359.355C360.122 359.692 360.724 359.861 361.467 359.861ZM370.327 362V345.095H373.099V362H370.327ZM380.017 362.345C379.12 362.345 378.361 362.176 377.74 361.839C377.119 361.494 376.647 361.038 376.325 360.47C376.011 359.903 375.854 359.278 375.854 358.596C375.854 357.998 375.953 357.461 376.153 356.986C376.352 356.503 376.659 356.089 377.073 355.744C377.487 355.391 378.023 355.104 378.683 354.881C379.181 354.72 379.764 354.575 380.431 354.444C381.105 354.314 381.834 354.195 382.616 354.088C383.405 353.973 384.229 353.85 385.088 353.72L384.099 354.283C384.107 353.425 383.915 352.792 383.524 352.386C383.133 351.98 382.474 351.776 381.546 351.776C380.986 351.776 380.446 351.907 379.925 352.167C379.403 352.428 379.039 352.877 378.832 353.513L376.302 352.719C376.609 351.669 377.191 350.826 378.05 350.189C378.916 349.553 380.082 349.235 381.546 349.235C382.65 349.235 383.62 349.415 384.456 349.775C385.299 350.136 385.924 350.726 386.33 351.546C386.552 351.983 386.687 352.432 386.733 352.892C386.779 353.344 386.802 353.839 386.802 354.375V362H384.375V359.309L384.778 359.746C384.218 360.643 383.562 361.302 382.811 361.724C382.067 362.138 381.136 362.345 380.017 362.345ZM380.569 360.137C381.197 360.137 381.734 360.026 382.179 359.803C382.623 359.581 382.976 359.309 383.237 358.987C383.505 358.665 383.685 358.362 383.777 358.078C383.923 357.726 384.003 357.323 384.019 356.871C384.042 356.411 384.053 356.039 384.053 355.755L384.904 356.008C384.068 356.139 383.352 356.254 382.754 356.353C382.156 356.453 381.642 356.549 381.213 356.641C380.783 356.725 380.404 356.821 380.074 356.928C379.752 357.043 379.48 357.178 379.258 357.331C379.035 357.484 378.863 357.661 378.74 357.86C378.625 358.059 378.568 358.293 378.568 358.561C378.568 358.868 378.644 359.14 378.798 359.378C378.951 359.608 379.173 359.792 379.465 359.93C379.764 360.068 380.132 360.137 380.569 360.137ZM390.732 367.52L393.124 360.953L393.17 362.886L387.754 349.58H390.64L394.481 359.424H393.745L397.483 349.58H400.254L393.331 367.52H390.732ZM402.199 362V345.095H404.971V362H402.199ZM408.646 347.694V345.152H411.417V347.694H408.646ZM408.646 362V349.58H411.417V362H408.646ZM419.657 362.345C418.124 362.345 416.878 362 415.92 361.31C414.962 360.62 414.379 359.65 414.172 358.4L417.001 357.963C417.147 358.577 417.469 359.06 417.967 359.412C418.465 359.765 419.094 359.941 419.853 359.941C420.52 359.941 421.034 359.811 421.394 359.55C421.762 359.282 421.946 358.918 421.946 358.458C421.946 358.174 421.877 357.948 421.739 357.779C421.609 357.603 421.317 357.434 420.865 357.273C420.413 357.112 419.719 356.909 418.783 356.664C417.741 356.388 416.913 356.093 416.299 355.778C415.686 355.456 415.245 355.077 414.977 354.64C414.709 354.203 414.574 353.674 414.574 353.053C414.574 352.279 414.778 351.604 415.184 351.029C415.59 350.454 416.158 350.013 416.886 349.706C417.614 349.392 418.473 349.235 419.462 349.235C420.428 349.235 421.283 349.384 422.026 349.683C422.778 349.982 423.383 350.408 423.843 350.96C424.303 351.512 424.587 352.16 424.694 352.903L421.865 353.409C421.796 352.88 421.555 352.463 421.141 352.156C420.735 351.849 420.19 351.677 419.508 351.638C418.856 351.6 418.331 351.7 417.932 351.937C417.534 352.167 417.334 352.493 417.334 352.915C417.334 353.153 417.415 353.356 417.576 353.524C417.737 353.693 418.059 353.862 418.542 354.03C419.033 354.199 419.761 354.406 420.727 354.651C421.716 354.904 422.506 355.196 423.096 355.525C423.694 355.847 424.123 356.235 424.384 356.687C424.652 357.139 424.786 357.687 424.786 358.331C424.786 359.581 424.33 360.562 423.418 361.275C422.513 361.989 421.26 362.345 419.657 362.345ZM434.585 362C433.764 362.153 432.959 362.219 432.17 362.196C431.388 362.18 430.686 362.038 430.065 361.77C429.444 361.494 428.973 361.061 428.651 360.47C428.367 359.934 428.218 359.386 428.202 358.826C428.187 358.266 428.179 357.634 428.179 356.928V346.13H430.939V356.767C430.939 357.266 430.943 357.703 430.951 358.078C430.966 358.454 431.047 358.761 431.192 358.998C431.468 359.458 431.909 359.715 432.515 359.769C433.12 359.823 433.81 359.792 434.585 359.677V362ZM425.925 351.753V349.58H434.585V351.753H425.925Z" fill="white"/>
<path fill-rule="evenodd" clip-rule="evenodd" d="M61.5625 278.75C61.5625 281.097 59.7437 283 57.5 283C55.2563 283 53.4375 281.097 53.4375 278.75C53.4375 276.403 55.2563 274.5 57.5 274.5C59.7437 274.5 61.5625 276.403 61.5625 278.75ZM64.2708 278.75C64.2708 282.662 61.2394 285.833 57.5 285.833C53.7606 285.833 50.7292 282.662 50.7292 278.75C50.7292 274.838 53.7606 271.667 57.5 271.667C61.2394 271.667 64.2708 274.838 64.2708 278.75ZM68.3146 293.628C68.2178 292.839 68.0408 292.076 67.7926 291.347C67.1692 289.517 66.0956 287.904 64.7082 286.648C64.6125 286.562 64.5153 286.477 64.4165 286.393L64.4048 286.383C64.3494 286.337 64.2933 286.291 64.237 286.245C64.0498 286.094 63.823 286.001 63.5867 285.992C62.8947 285.967 62.5433 286.136 62.2729 286.456C61.7865 287.031 62.0515 287.941 62.5869 288.48C62.6057 288.499 62.625 288.518 62.6445 288.536C62.6651 288.555 62.686 288.573 62.7073 288.591C62.772 288.645 62.8358 288.701 62.8988 288.757C63.1163 288.952 63.3235 289.158 63.5195 289.375C64.2562 290.189 64.835 291.151 65.2093 292.208H62.2073H52.7914H49.7894C50.1637 291.151 50.7426 290.189 51.4792 289.375C51.6723 289.161 51.8764 288.958 52.0905 288.766C52.1567 288.706 52.224 288.648 52.2921 288.59C52.3134 288.573 52.3343 288.554 52.3548 288.535C52.3742 288.517 52.3934 288.499 52.4121 288.48C52.9478 287.941 53.2132 287.031 52.7268 286.456C52.4565 286.136 52.105 285.967 51.413 285.992C51.1764 286 50.9496 286.093 50.7623 286.245C50.706 286.29 50.6502 286.336 50.595 286.383L50.5828 286.393C50.4767 286.482 50.3723 286.574 50.2696 286.667C48.8924 287.921 47.8265 289.526 47.2062 291.347C46.9578 292.076 46.781 292.839 46.684 293.628C46.5887 294.404 47.2041 295.041 47.952 295.041H49.7894H65.2093H67.0467C67.7945 295.041 68.41 294.404 68.3146 293.628Z" fill="#EAEAEA"/>
<path d="M45.5 266.979V271.5M45.5 271.5V276.021M45.5 271.5H40.9792M45.5 271.5H50.0208" stroke="#EAEAEA" stroke-width="2" stroke-linecap="round"/>
<path fill-rule="evenodd" clip-rule="evenodd" d="M106.875 287.469C105.736 287.469 104.812 286.587 104.812 285.5C104.812 284.413 105.736 283.531 106.875 283.531C108.014 283.531 108.938 284.413 108.938 285.5C108.938 286.587 108.014 287.469 106.875 287.469ZM100 287.469C98.8609 287.469 97.9375 286.587 97.9375 285.5C97.9375 284.413 98.8609 283.531 100 283.531C101.139 283.531 102.062 284.413 102.062 285.5C102.062 286.587 101.139 287.469 100 287.469ZM91.0625 285.5C91.0625 286.587 91.9859 287.469 93.125 287.469C94.2641 287.469 95.1875 286.587 95.1875 285.5C95.1875 284.413 94.2641 283.531 93.125 283.531C91.9859 283.531 91.0625 284.413 91.0625 285.5Z" fill="#EAEAEA"/>
<path d="M877 347L883 353M883 353L889 359M883 353L889 347M883 353L877 359" stroke="#EAEAEA" stroke-width="2" stroke-linecap="round"/>
<defs>
<linearGradient id="paint0_linear_5_94" x1="463.5" y1="47" x2="464.144" y2="437.5" gradientUnits="userSpaceOnUse">
<stop stop-color="#52B70C"/>
<stop offset="1" stop-color="#52B70C" stop-opacity="0"/>
</linearGradient>
<linearGradient id="paint1_linear_5_94" x1="462.5" y1="320" x2="462.597" y2="444.122" gradientUnits="userSpaceOnUse">
<stop stop-color="#152607"/>
<stop offset="1" stop-color="#214905" stop-opacity="0"/>
</linearGradient>
</defs>
</svg>
